<?xml version="1.0" encoding="utf-8"?>
<svg version="1.1" viewBox="0 0 717 500" fill="none" stroke="none" stroke-linecap="square" stroke-miterlimit="10" xmlns="http://www.w3.org/2000/svg">
  <path fill="#9fc5e8" d="M 10.457 87.664 C 10.457 65.79 28.189 48.058 50.063 48.058 C 60.567 48.058 70.641 52.231 78.069 59.658 C 85.497 67.086 89.669 77.16 89.669 87.664 C 89.669 109.538 71.937 127.271 50.063 127.271 C 28.189 127.271 10.457 109.538 10.457 87.664 Z" fill-rule="evenodd"/>
  <path stroke="#ffffff" stroke-width="3.0" stroke-linejoin="round" stroke-linecap="butt" d="M 10.457 87.664 C 10.457 65.79 28.189 48.058 50.063 48.058 C 60.567 48.058 70.641 52.231 78.069 59.658 C 85.497 67.086 89.669 77.16 89.669 87.664 C 89.669 109.538 71.937 127.271 50.063 127.271 C 28.189 127.271 10.457 109.538 10.457 87.664 Z" fill-rule="evenodd"/>
  <path fill="#000000" d="M 41.095 94.584 L 45.658 87.616 L 41.517 81.225 L 44.673 81.225 L 47.361 85.522 L 49.97 81.225 L 53.095 81.225 L 48.955 87.709 L 53.517 94.584 L 50.267 94.584 L 47.298 89.959 L 44.33 94.584 L 41.095 94.584 Z" fill-rule="nonzero"/>
  <path fill="#000000" d="M 56.32 88.194 C 56.497 88.027 56.586 87.746 56.586 87.35 L 57.961 87.35 L 57.961 94.584 L 56.133 94.584 L 56.133 89.616 L 54.945 89.616 L 54.945 88.381 L 55.711 88.381 C 56.002 88.381 56.206 88.319 56.32 88.194 Z" fill-rule="nonzero"/>
  <path fill="#ffd966" d="M 136.835 62.158 C 136.835 54.867 142.746 48.956 150.037 48.956 L 202.845 48.956 C 206.347 48.956 209.705 50.347 212.181 52.822 C 214.656 55.298 216.047 58.656 216.047 62.158 L 216.047 114.966 C 216.047 122.257 210.137 128.168 202.845 128.168 L 150.037 128.168 C 142.746 128.168 136.835 122.257 136.835 114.966 L 136.835 62.158 Z" fill-rule="evenodd"/>
  <path stroke="#ffffff" stroke-width="3.0" stroke-linejoin="round" stroke-linecap="butt" d="M 136.835 62.158 C 136.835 54.867 142.746 48.956 150.037 48.956 L 202.845 48.956 C 206.347 48.956 209.705 50.347 212.181 52.822 C 214.656 55.298 216.047 58.656 216.047 62.158 L 216.047 114.966 C 216.047 122.257 210.137 128.168 202.845 128.168 L 150.037 128.168 C 142.746 128.168 136.835 122.257 136.835 114.966 L 136.835 62.158 Z" fill-rule="evenodd"/>
  <path fill="#000000" d="M 178.359 95.482 L 175.578 95.482 L 175.281 85.716 L 170.406 95.482 L 167.578 95.482 L 167.078 82.123 L 169.766 82.123 L 169.875 91.466 L 174.469 82.123 L 177.438 82.123 L 177.75 91.373 L 182.156 82.123 L 184.813 82.123 L 178.359 95.482 Z" fill-rule="nonzero"/>
  <path fill="#000000" d="M 185.281 89.091 C 185.458 88.925 185.546 88.643 185.546 88.248 L 186.921 88.248 L 186.921 95.482 L 185.093 95.482 L 185.093 90.513 L 183.906 90.513 L 183.906 89.279 L 184.671 89.279 C 184.963 89.279 185.166 89.216 185.281 89.091 Z" fill-rule="nonzero"/>
  <path fill="#9fc5e8" d="M 10.457 210.463 C 10.457 188.589 28.189 170.857 50.063 170.857 C 60.567 170.857 70.641 175.03 78.069 182.457 C 85.497 189.885 89.669 199.959 89.669 210.463 C 89.669 232.337 71.937 250.069 50.063 250.069 C 28.189 250.069 10.457 232.337 10.457 210.463 Z" fill-rule="evenodd"/>
  <path stroke="#ffffff" stroke-width="3.0" stroke-linejoin="round" stroke-linecap="butt" d="M 10.457 210.463 C 10.457 188.589 28.189 170.857 50.063 170.857 C 60.567 170.857 70.641 175.03 78.069 182.457 C 85.497 189.885 89.669 199.959 89.669 210.463 C 89.669 232.337 71.937 250.069 50.063 250.069 C 28.189 250.069 10.457 232.337 10.457 210.463 Z" fill-rule="evenodd"/>
  <path fill="#000000" d="M 41.095 217.383 L 45.658 210.414 L 41.517 204.024 L 44.673 204.024 L 47.361 208.321 L 49.97 204.024 L 53.095 204.024 L 48.955 210.508 L 53.517 217.383 L 50.267 217.383 L 47.298 212.758 L 44.33 217.383 L 41.095 217.383 Z" fill-rule="nonzero"/>
  <path fill="#000000" d="M 54.304 213.071 C 54.45 211.862 54.726 211.044 55.133 210.617 C 55.518 210.253 56.034 210.071 56.679 210.071 C 57.315 210.071 57.841 210.248 58.258 210.602 C 58.706 210.977 58.929 211.498 58.929 212.164 C 58.929 212.696 58.679 213.294 58.179 213.961 C 57.825 214.419 57.471 214.847 57.117 215.242 C 56.919 215.492 56.7 215.737 56.461 215.977 C 56.284 216.196 56.122 216.237 55.976 216.102 L 59.148 215.789 L 59.148 217.461 L 54.351 217.461 L 54.351 216.352 C 54.424 216.018 54.653 215.602 55.039 215.102 C 55.685 214.414 56.206 213.815 56.601 213.305 C 56.935 212.982 57.101 212.602 57.101 212.164 C 57.101 212.018 57.065 211.914 56.992 211.852 C 56.929 211.779 56.851 211.742 56.758 211.742 C 56.664 211.742 56.575 211.779 56.492 211.852 C 56.242 212.102 56.159 212.508 56.242 213.071 L 54.304 213.071 Z" fill-rule="nonzero"/>
  <path fill="#ffd966" d="M 136.835 184.957 C 136.835 177.665 142.746 171.754 150.037 171.754 L 202.845 171.754 C 206.347 171.754 209.705 173.145 212.181 175.621 C 214.656 178.097 216.047 181.455 216.047 184.957 L 216.047 237.765 C 216.047 245.056 210.137 250.967 202.845 250.967 L 150.037 250.967 C 142.746 250.967 136.835 245.056 136.835 237.765 L 136.835 184.957 Z" fill-rule="evenodd"/>
  <path stroke="#ffffff" stroke-width="3.0" stroke-linejoin="round" stroke-linecap="butt" d="M 136.835 184.957 C 136.835 177.665 142.746 171.754 150.037 171.754 L 202.845 171.754 C 206.347 171.754 209.705 173.145 212.181 175.621 C 214.656 178.097 216.047 181.455 216.047 184.957 L 216.047 237.765 C 216.047 245.056 210.137 250.967 202.845 250.967 L 150.037 250.967 C 142.746 250.967 136.835 245.056 136.835 237.765 L 136.835 184.957 Z" fill-rule="evenodd"/>
  <path fill="#000000" d="M 178.359 218.281 L 175.578 218.281 L 175.281 208.515 L 170.406 218.281 L 167.578 218.281 L 167.078 204.921 L 169.766 204.921 L 169.875 214.265 L 174.469 204.921 L 177.438 204.921 L 177.75 214.171 L 182.156 204.921 L 184.813 204.921 L 178.359 218.281 Z" fill-rule="nonzero"/>
  <path fill="#000000" d="M 183.265 213.968 C 183.411 212.76 183.687 211.942 184.093 211.515 C 184.479 211.15 184.994 210.968 185.64 210.968 C 186.275 210.968 186.801 211.145 187.218 211.499 C 187.666 211.874 187.89 212.395 187.89 213.062 C 187.89 213.593 187.64 214.192 187.14 214.859 C 186.786 215.317 186.432 215.744 186.077 216.14 C 185.88 216.39 185.661 216.635 185.421 216.874 C 185.244 217.093 185.083 217.135 184.937 216.999 L 188.109 216.687 L 188.109 218.359 L 183.312 218.359 L 183.312 217.249 C 183.385 216.916 183.614 216.499 183.999 215.999 C 184.645 215.312 185.166 214.713 185.562 214.203 C 185.895 213.88 186.062 213.499 186.062 213.062 C 186.062 212.916 186.025 212.812 185.952 212.749 C 185.89 212.677 185.812 212.64 185.718 212.64 C 185.624 212.64 185.536 212.677 185.452 212.749 C 185.202 212.999 185.119 213.406 185.202 213.968 L 183.265 213.968 Z" fill-rule="nonzero"/>
  <path fill="#9fc5e8" d="M 10.457 333.262 C 10.457 311.388 28.189 293.656 50.063 293.656 C 60.567 293.656 70.641 297.828 78.069 305.256 C 85.497 312.684 89.669 322.758 89.669 333.262 C 89.669 355.136 71.937 372.868 50.063 372.868 C 28.189 372.868 10.457 355.136 10.457 333.262 Z" fill-rule="evenodd"/>
  <path stroke="#ffffff" stroke-width="3.0" stroke-linejoin="round" stroke-linecap="butt" d="M 10.457 333.262 C 10.457 311.388 28.189 293.656 50.063 293.656 C 60.567 293.656 70.641 297.828 78.069 305.256 C 85.497 312.684 89.669 322.758 89.669 333.262 C 89.669 355.136 71.937 372.868 50.063 372.868 C 28.189 372.868 10.457 355.136 10.457 333.262 Z" fill-rule="evenodd"/>
  <path fill="#000000" d="M 41.095 340.182 L 45.658 333.213 L 41.517 326.822 L 44.673 326.822 L 47.361 331.119 L 49.97 326.822 L 53.095 326.822 L 48.955 333.307 L 53.517 340.182 L 50.267 340.182 L 47.298 335.557 L 44.33 340.182 L 41.095 340.182 Z" fill-rule="nonzero"/>
  <path fill="#000000" d="M 54.32 335.51 C 54.403 334.541 54.648 333.843 55.054 333.416 C 55.44 333.052 55.956 332.869 56.601 332.869 C 57.299 332.869 57.841 333.052 58.226 333.416 C 58.591 333.802 58.773 334.291 58.773 334.885 C 58.773 335.489 58.612 335.958 58.289 336.291 C 58.028 336.541 57.836 336.567 57.711 336.369 C 57.888 336.182 58.107 336.213 58.367 336.463 C 58.742 336.849 58.929 337.338 58.929 337.932 C 58.929 338.64 58.716 339.203 58.289 339.619 C 57.872 340.046 57.284 340.26 56.523 340.26 C 55.815 340.26 55.252 340.046 54.836 339.619 C 54.419 339.192 54.211 338.682 54.211 338.088 L 54.211 337.322 L 56.023 337.322 L 56.023 338.01 C 56.023 338.197 56.086 338.349 56.211 338.463 C 56.284 338.546 56.388 338.588 56.523 338.588 C 56.711 338.588 56.841 338.552 56.914 338.479 C 57.039 338.354 57.101 338.145 57.101 337.854 C 57.101 337.614 57.039 337.437 56.914 337.322 C 56.851 337.25 56.721 337.213 56.523 337.213 L 55.836 337.213 L 55.836 335.541 L 56.461 335.541 C 56.648 335.541 56.752 335.526 56.773 335.494 C 56.898 335.38 56.961 335.177 56.961 334.885 C 56.961 334.75 56.898 334.625 56.773 334.51 C 56.752 334.479 56.695 334.463 56.601 334.463 C 56.518 334.463 56.466 334.474 56.445 334.494 C 56.268 334.671 56.179 335.01 56.179 335.51 L 54.32 335.51 Z" fill-rule="nonzero"/>
  <path fill="#ffd966" d="M 136.835 307.756 C 136.835 300.464 142.746 294.553 150.037 294.553 L 202.845 294.553 C 206.347 294.553 209.705 295.944 212.181 298.42 C 214.656 300.896 216.047 304.254 216.047 307.756 L 216.047 360.563 C 216.047 367.855 210.137 373.766 202.845 373.766 L 150.037 373.766 C 142.746 373.766 136.835 367.855 136.835 360.563 L 136.835 307.756 Z" fill-rule="evenodd"/>
  <path stroke="#ffffff" stroke-width="3.0" stroke-linejoin="round" stroke-linecap="butt" d="M 136.835 307.756 C 136.835 300.464 142.746 294.553 150.037 294.553 L 202.845 294.553 C 206.347 294.553 209.705 295.944 212.181 298.42 C 214.656 300.896 216.047 304.254 216.047 307.756 L 216.047 360.563 C 216.047 367.855 210.137 373.766 202.845 373.766 L 150.037 373.766 C 142.746 373.766 136.835 367.855 136.835 360.563 L 136.835 307.756 Z" fill-rule="evenodd"/>
  <path fill="#000000" d="M 178.359 341.079 L 175.578 341.079 L 175.281 331.314 L 170.406 341.079 L 167.578 341.079 L 167.078 327.72 L 169.766 327.72 L 169.875 337.064 L 174.469 327.72 L 177.438 327.72 L 177.75 336.97 L 182.156 327.72 L 184.813 327.72 L 178.359 341.079 Z" fill-rule="nonzero"/>
  <path fill="#000000" d="M 183.281 336.408 C 183.364 335.439 183.609 334.741 184.015 334.314 C 184.4 333.949 184.916 333.767 185.562 333.767 C 186.26 333.767 186.801 333.949 187.187 334.314 C 187.551 334.699 187.734 335.189 187.734 335.783 C 187.734 336.387 187.572 336.855 187.249 337.189 C 186.989 337.439 186.796 337.465 186.671 337.267 C 186.848 337.079 187.067 337.111 187.327 337.361 C 187.702 337.746 187.89 338.236 187.89 338.829 C 187.89 339.538 187.676 340.1 187.249 340.517 C 186.833 340.944 186.244 341.158 185.484 341.158 C 184.775 341.158 184.213 340.944 183.796 340.517 C 183.38 340.09 183.171 339.579 183.171 338.986 L 183.171 338.22 L 184.984 338.22 L 184.984 338.908 C 184.984 339.095 185.046 339.246 185.171 339.361 C 185.244 339.444 185.348 339.486 185.484 339.486 C 185.671 339.486 185.801 339.449 185.874 339.376 C 185.999 339.251 186.062 339.043 186.062 338.751 C 186.062 338.512 185.999 338.335 185.874 338.22 C 185.812 338.147 185.682 338.111 185.484 338.111 L 184.796 338.111 L 184.796 336.439 L 185.421 336.439 C 185.609 336.439 185.713 336.423 185.734 336.392 C 185.859 336.277 185.921 336.074 185.921 335.783 C 185.921 335.647 185.859 335.522 185.734 335.408 C 185.713 335.376 185.656 335.361 185.562 335.361 C 185.479 335.361 185.426 335.371 185.406 335.392 C 185.229 335.569 185.14 335.908 185.14 336.408 L 183.281 336.408 Z" fill-rule="nonzero"/>
  <path fill="#9fc5e8" d="M 10.457 456.061 C 10.457 434.187 28.189 416.454 50.063 416.454 C 60.567 416.454 70.641 420.627 78.069 428.055 C 85.497 435.482 89.669 445.556 89.669 456.061 C 89.669 477.935 71.937 495.667 50.063 495.667 C 28.189 495.667 10.457 477.935 10.457 456.061 Z" fill-rule="evenodd"/>
  <path stroke="#ffffff" stroke-width="3.0" stroke-linejoin="round" stroke-linecap="butt" d="M 10.457 456.061 C 10.457 434.187 28.189 416.454 50.063 416.454 C 60.567 416.454 70.641 420.627 78.069 428.055 C 85.497 435.482 89.669 445.556 89.669 456.061 C 89.669 477.935 71.937 495.667 50.063 495.667 C 28.189 495.667 10.457 477.935 10.457 456.061 Z" fill-rule="evenodd"/>
  <path fill="#000000" d="M 41.095 462.981 L 45.658 456.012 L 41.517 449.621 L 44.673 449.621 L 47.361 453.918 L 49.97 449.621 L 53.095 449.621 L 48.955 456.106 L 53.517 462.981 L 50.267 462.981 L 47.298 458.356 L 44.33 462.981 L 41.095 462.981 Z" fill-rule="nonzero"/>
  <path fill="#000000" d="M 56.836 455.746 L 58.476 455.746 L 58.476 459.668 L 59.07 459.668 L 59.07 461.34 L 58.476 461.34 L 58.476 462.981 L 56.664 462.981 L 56.664 461.34 L 54.211 461.34 L 54.211 460.027 L 56.836 455.746 Z M 56.664 459.246 L 56.398 459.668 L 56.664 459.668 L 56.664 459.246 Z" fill-rule="nonzero"/>
  <path fill="#ffd966" d="M 136.835 430.554 C 136.835 423.263 142.746 417.352 150.037 417.352 L 202.845 417.352 C 206.347 417.352 209.705 418.743 212.181 421.219 C 214.656 423.695 216.047 427.053 216.047 430.554 L 216.047 483.362 C 216.047 490.654 210.137 496.565 202.845 496.565 L 150.037 496.565 C 142.746 496.565 136.835 490.654 136.835 483.362 L 136.835 430.554 Z" fill-rule="evenodd"/>
  <path stroke="#ffffff" stroke-width="3.0" stroke-linejoin="round" stroke-linecap="butt" d="M 136.835 430.554 C 136.835 423.263 142.746 417.352 150.037 417.352 L 202.845 417.352 C 206.347 417.352 209.705 418.743 212.181 421.219 C 214.656 423.695 216.047 427.053 216.047 430.554 L 216.047 483.362 C 216.047 490.654 210.137 496.565 202.845 496.565 L 150.037 496.565 C 142.746 496.565 136.835 490.654 136.835 483.362 L 136.835 430.554 Z" fill-rule="evenodd"/>
  <path fill="#000000" d="M 178.359 463.878 L 175.578 463.878 L 175.281 454.113 L 170.406 463.878 L 167.578 463.878 L 167.078 450.519 L 169.766 450.519 L 169.875 459.863 L 174.469 450.519 L 177.438 450.519 L 177.75 459.769 L 182.156 450.519 L 184.813 450.519 L 178.359 463.878 Z" fill-rule="nonzero"/>
  <path fill="#000000" d="M 185.796 456.644 L 187.437 456.644 L 187.437 460.566 L 188.031 460.566 L 188.031 462.238 L 187.437 462.238 L 187.437 463.878 L 185.624 463.878 L 185.624 462.238 L 183.171 462.238 L 183.171 460.925 L 185.796 456.644 Z M 185.624 460.144 L 185.359 460.566 L 185.624 460.566 L 185.624 460.144 Z" fill-rule="nonzero"/>
  <path fill="#d5a6bd" d="M 315.719 272.311 C 315.719 250.185 333.656 232.248 355.782 232.248 C 366.408 232.248 376.598 236.469 384.111 243.982 C 391.624 251.496 395.845 261.686 395.845 272.311 C 395.845 294.437 377.908 312.374 355.782 312.374 C 333.656 312.374 315.719 294.437 315.719 272.311 Z" fill-rule="evenodd"/>
  <path stroke="#ffffff" stroke-width="3.0" stroke-linejoin="round" stroke-linecap="butt" d="M 315.719 272.311 C 315.719 250.185 333.656 232.248 355.782 232.248 C 366.408 232.248 376.598 236.469 384.111 243.982 C 391.624 251.496 395.845 261.686 395.845 272.311 C 395.845 294.437 377.908 312.374 355.782 312.374 C 333.656 312.374 315.719 294.437 315.719 272.311 Z" fill-rule="evenodd"/>
  <path fill="#000000" d="M 337.516 251.56 L 371.282 251.56 L 372.188 262.888 L 370.922 262.888 C 370.766 260.649 370.386 258.94 369.782 257.763 C 369.188 256.576 368.37 255.716 367.329 255.185 C 366.287 254.654 364.641 254.388 362.391 254.388 L 347.016 254.388 L 360.719 271.982 L 345.125 290.419 L 362.219 290.419 C 365.323 290.419 367.693 289.919 369.329 288.919 C 370.964 287.919 372.193 285.841 373.016 282.685 L 374.266 282.982 L 372.344 296.591 L 337.516 296.591 L 337.516 295.388 L 354.844 274.935 L 337.516 252.763 L 337.516 251.56 Z" fill-rule="nonzero"/>
  <path fill="#cc0000" d="M 470.559 272.311 C 470.559 250.185 488.496 232.248 510.622 232.248 C 521.248 232.248 531.438 236.469 538.951 243.982 C 546.464 251.496 550.685 261.686 550.685 272.311 C 550.685 294.437 532.748 312.374 510.622 312.374 C 488.496 312.374 470.559 294.437 470.559 272.311 Z" fill-rule="evenodd"/>
  <path stroke="#ffffff" stroke-width="3.0" stroke-linejoin="round" stroke-linecap="butt" d="M 470.559 272.311 C 470.559 250.185 488.496 232.248 510.622 232.248 C 521.248 232.248 531.438 236.469 538.951 243.982 C 546.464 251.496 550.685 261.686 550.685 272.311 C 550.685 294.437 532.748 312.374 510.622 312.374 C 488.496 312.374 470.559 294.437 470.559 272.311 Z" fill-rule="evenodd"/>
  <path fill="#6aa84f" d="M 613.866 272.311 L 653.929 232.248 L 693.992 272.311 L 653.929 312.374 L 613.866 272.311 Z" fill-rule="evenodd"/>
  <path stroke="#ffffff" stroke-width="3.0" stroke-linejoin="round" stroke-linecap="butt" d="M 613.866 272.311 L 653.929 232.248 L 693.992 272.311 L 653.929 312.374 L 613.866 272.311 Z" fill-rule="evenodd"/>
  <path fill="#000000" d="M 651.929 284.591 L 651.929 274.154 L 642.851 259.779 L 648.726 259.779 L 654.554 269.591 L 660.273 259.779 L 666.054 259.779 L 656.929 274.185 L 656.929 284.591 L 651.929 284.591 Z" fill-rule="nonzero"/>
  <path fill="#000000" fill-opacity="0.0" d="M 487.932 289.209 C 498.278 289.209 503.452 280.76 508.625 272.311 C 513.798 263.862 518.971 255.414 529.318 255.414" fill-rule="evenodd"/>
  <path stroke="#ffffff" stroke-width="4.0" stroke-linejoin="round" stroke-linecap="butt" d="M 487.932 289.209 C 498.278 289.209 503.452 280.76 508.625 272.311 C 513.798 263.862 518.971 255.414 529.318 255.414" fill-rule="evenodd"/>
  <path fill="#000000" fill-opacity="0.0" d="M 216.047 88.562 L 327.449 243.995" fill-rule="evenodd"/>
  <path stroke="#ffffff" stroke-width="3.0" stroke-linejoin="round" stroke-linecap="butt" d="M 216.047 88.562 L 316.963 229.365" fill-rule="evenodd"/>
  <path fill="#ffffff" stroke="#ffffff" stroke-width="3.0" stroke-linecap="butt" d="M 312.936 232.251 L 324.894 240.43 L 320.991 226.478 L 312.936 232.251 Z" fill-rule="evenodd"/>
  <path fill="#000000" fill-opacity="0.0" d="M 216.047 211.361 L 315.732 272.306" fill-rule="evenodd"/>
  <path stroke="#ffffff" stroke-width="3.0" stroke-linejoin="round" stroke-linecap="butt" d="M 216.047 211.361 L 300.375 262.917" fill-rule="evenodd"/>
  <path fill="#ffffff" stroke="#ffffff" stroke-width="3.0" stroke-linecap="butt" d="M 297.79 267.144 L 311.991 270.018 L 302.96 258.689 L 297.79 267.144 Z" fill-rule="evenodd"/>
  <path fill="#000000" fill-opacity="0.0" d="M 216.047 334.159 L 315.732 272.301" fill-rule="evenodd"/>
  <path stroke="#ffffff" stroke-width="3.0" stroke-linejoin="round" stroke-linecap="butt" d="M 216.047 334.159 L 300.438 281.792" fill-rule="evenodd"/>
  <path fill="#ffffff" stroke="#ffffff" stroke-width="3.0" stroke-linecap="butt" d="M 303.051 286.003 L 312.006 274.614 L 297.825 277.582 L 303.051 286.003 Z" fill-rule="evenodd"/>
  <path fill="#000000" fill-opacity="0.0" d="M 216.047 456.958 L 327.449 300.643" fill-rule="evenodd"/>
  <path stroke="#ffffff" stroke-width="3.0" stroke-linejoin="round" stroke-linecap="butt" d="M 216.047 456.958 L 317.002 315.302" fill-rule="evenodd"/>
  <path fill="#ffffff" stroke="#ffffff" stroke-width="3.0" stroke-linecap="butt" d="M 321.038 318.178 L 324.904 304.215 L 312.967 312.426 L 321.038 318.178 Z" fill-rule="evenodd"/>
  <path fill="#000000" fill-opacity="0.0" d="M 89.654 87.649 L 136.835 88.562" fill-rule="evenodd"/>
  <path stroke="#ffffff" stroke-width="3.0" stroke-linejoin="round" stroke-linecap="butt" d="M 89.654 87.649 L 118.838 88.214" fill-rule="evenodd"/>
  <path fill="#ffffff" stroke="#ffffff" stroke-width="3.0" stroke-linecap="butt" d="M 118.742 93.168 L 132.45 88.477 L 118.934 83.259 L 118.742 93.168 Z" fill-rule="evenodd"/>
  <path fill="#000000" fill-opacity="0.0" d="M 89.669 210.463 L 136.851 211.376" fill-rule="evenodd"/>
  <path stroke="#ffffff" stroke-width="3.0" stroke-linejoin="round" stroke-linecap="butt" d="M 89.669 210.463 L 118.854 211.028" fill-rule="evenodd"/>
  <path fill="#ffffff" stroke="#ffffff" stroke-width="3.0" stroke-linecap="butt" d="M 118.758 215.982 L 132.466 211.292 L 118.95 206.074 L 118.758 215.982 Z" fill-rule="evenodd"/>
  <path fill="#000000" fill-opacity="0.0" d="M 89.669 333.262 L 136.851 334.175" fill-rule="evenodd"/>
  <path stroke="#ffffff" stroke-width="3.0" stroke-linejoin="round" stroke-linecap="butt" d="M 89.669 333.262 L 118.854 333.827" fill-rule="evenodd"/>
  <path fill="#ffffff" stroke="#ffffff" stroke-width="3.0" stroke-linecap="butt" d="M 118.758 338.781 L 132.466 334.09 L 118.95 328.873 L 118.758 338.781 Z" fill-rule="evenodd"/>
  <path fill="#000000" fill-opacity="0.0" d="M 89.669 456.061 L 136.851 456.974" fill-rule="evenodd"/>
  <path stroke="#ffffff" stroke-width="3.0" stroke-linejoin="round" stroke-linecap="butt" d="M 89.669 456.061 L 118.854 456.626" fill-rule="evenodd"/>
  <path fill="#ffffff" stroke="#ffffff" stroke-width="3.0" stroke-linecap="butt" d="M 118.758 461.58 L 132.466 456.889 L 118.95 451.671 L 118.758 461.58 Z" fill-rule="evenodd"/>
  <path fill="#000000" fill-opacity="0.0" d="M 395.845 272.311 L 470.554 272.311" fill-rule="evenodd"/>
  <path stroke="#ffffff" stroke-width="3.0" stroke-linejoin="round" stroke-linecap="butt" d="M 395.845 272.311 L 452.554 272.311" fill-rule="evenodd"/>
  <path fill="#ffffff" stroke="#ffffff" stroke-width="3.0" stroke-linecap="butt" d="M 452.554 277.266 L 466.168 272.311 L 452.554 267.356 L 452.554 277.266 Z" fill-rule="evenodd"/>
  <path fill="#000000" fill-opacity="0.0" d="M 550.685 272.311 L 613.866 272.311" fill-rule="evenodd"/>
  <path stroke="#ffffff" stroke-width="3.0" stroke-linejoin="round" stroke-linecap="butt" d="M 550.685 272.311 L 595.866 272.311" fill-rule="evenodd"/>
  <path fill="#ffffff" stroke="#ffffff" stroke-width="3.0" stroke-linecap="butt" d="M 595.866 277.266 L 609.481 272.311 L 595.866 267.356 L 595.866 277.266 Z" fill-rule="evenodd"/>
  <path fill="#000000" fill-opacity="0.0" d="M 10 0 L 90.126 0 L 90.126 42.016 L 10 42.016 L 10 0 Z" fill-rule="evenodd"/>
  <path fill="#ffffff" d="M 23.365 26.92 L 23.365 13.561 L 26.052 13.561 L 26.052 26.92 L 23.365 26.92 Z M 37.407 26.92 L 34.845 26.92 L 34.845 21.983 C 34.845 20.941 34.787 20.269 34.673 19.967 C 34.569 19.655 34.392 19.415 34.142 19.248 C 33.902 19.071 33.61 18.983 33.267 18.983 C 32.819 18.983 32.418 19.108 32.064 19.358 C 31.709 19.597 31.465 19.92 31.329 20.326 C 31.204 20.722 31.142 21.462 31.142 22.545 L 31.142 26.92 L 28.595 26.92 L 28.595 17.248 L 30.97 17.248 L 30.97 18.67 C 31.814 17.576 32.876 17.03 34.157 17.03 C 34.72 17.03 35.235 17.134 35.704 17.342 C 36.173 17.54 36.527 17.8 36.767 18.123 C 37.006 18.436 37.173 18.795 37.267 19.201 C 37.36 19.597 37.407 20.165 37.407 20.905 L 37.407 26.92 Z M 39.928 17.248 L 42.319 17.248 L 42.319 18.67 C 42.631 18.181 43.048 17.785 43.569 17.483 C 44.1 17.181 44.689 17.03 45.335 17.03 C 46.46 17.03 47.413 17.472 48.194 18.358 C 48.975 19.233 49.366 20.457 49.366 22.03 C 49.366 23.644 48.97 24.899 48.178 25.795 C 47.387 26.691 46.433 27.139 45.319 27.139 C 44.777 27.139 44.288 27.035 43.85 26.826 C 43.423 26.608 42.97 26.243 42.491 25.733 L 42.491 30.608 L 39.928 30.608 L 39.928 17.248 Z M 42.46 21.92 C 42.46 23.004 42.673 23.806 43.1 24.326 C 43.538 24.847 44.064 25.108 44.678 25.108 C 45.282 25.108 45.777 24.868 46.163 24.389 C 46.558 23.91 46.756 23.129 46.756 22.045 C 46.756 21.035 46.553 20.285 46.147 19.795 C 45.741 19.295 45.236 19.045 44.631 19.045 C 44.006 19.045 43.486 19.29 43.069 19.78 C 42.663 20.259 42.46 20.972 42.46 21.92 Z M 57.762 26.92 L 57.762 25.467 C 57.408 25.988 56.944 26.399 56.371 26.701 C 55.798 26.993 55.194 27.139 54.559 27.139 C 53.913 27.139 53.329 26.998 52.809 26.717 C 52.298 26.425 51.923 26.024 51.684 25.514 C 51.454 24.993 51.34 24.28 51.34 23.373 L 51.34 17.248 L 53.902 17.248 L 53.902 21.686 C 53.902 23.05 53.949 23.889 54.043 24.201 C 54.137 24.504 54.309 24.743 54.559 24.92 C 54.809 25.097 55.126 25.186 55.512 25.186 C 55.949 25.186 56.34 25.066 56.684 24.826 C 57.027 24.587 57.262 24.29 57.387 23.936 C 57.522 23.582 57.59 22.712 57.59 21.326 L 57.59 17.248 L 60.137 17.248 L 60.137 26.92 L 57.762 26.92 Z M 67.236 17.248 L 67.236 19.28 L 65.486 19.28 L 65.486 23.186 C 65.486 23.978 65.501 24.441 65.533 24.576 C 65.564 24.701 65.637 24.806 65.751 24.889 C 65.876 24.972 66.022 25.014 66.189 25.014 C 66.429 25.014 66.772 24.931 67.22 24.764 L 67.439 26.764 C 66.845 27.014 66.173 27.139 65.423 27.139 C 64.955 27.139 64.533 27.061 64.158 26.905 C 63.793 26.748 63.522 26.55 63.345 26.311 C 63.179 26.061 63.064 25.728 63.001 25.311 C 62.939 25.009 62.908 24.405 62.908 23.498 L 62.908 19.28 L 61.736 19.28 L 61.736 17.248 L 62.908 17.248 L 62.908 15.326 L 65.486 13.826 L 65.486 17.248 L 67.236 17.248 Z M 68.105 24.155 L 70.667 23.764 C 70.782 24.264 71.006 24.644 71.339 24.905 C 71.672 25.165 72.141 25.295 72.745 25.295 C 73.402 25.295 73.896 25.17 74.23 24.92 C 74.459 24.754 74.574 24.53 74.574 24.248 C 74.574 24.05 74.511 23.889 74.386 23.764 C 74.261 23.639 73.975 23.524 73.527 23.42 C 71.464 22.962 70.157 22.545 69.605 22.17 C 68.844 21.649 68.464 20.925 68.464 19.998 C 68.464 19.155 68.792 18.451 69.449 17.889 C 70.115 17.316 71.141 17.03 72.527 17.03 C 73.85 17.03 74.834 17.248 75.48 17.686 C 76.126 18.113 76.568 18.748 76.808 19.592 L 74.402 20.03 C 74.297 19.655 74.1 19.368 73.808 19.17 C 73.527 18.972 73.115 18.873 72.574 18.873 C 71.907 18.873 71.428 18.967 71.136 19.155 C 70.938 19.29 70.839 19.462 70.839 19.67 C 70.839 19.847 70.922 20.004 71.089 20.139 C 71.318 20.306 72.115 20.545 73.48 20.858 C 74.844 21.16 75.797 21.54 76.339 21.998 C 76.87 22.446 77.136 23.076 77.136 23.889 C 77.136 24.785 76.766 25.55 76.027 26.186 C 75.287 26.821 74.193 27.139 72.745 27.139 C 71.422 27.139 70.376 26.873 69.605 26.342 C 68.844 25.8 68.344 25.071 68.105 24.155 Z" fill-rule="nonzero"/>
  <path fill="#000000" fill-opacity="0.0" d="M 122.601 0 L 230.286 0 L 230.286 42.016 L 122.601 42.016 L 122.601 0 Z" fill-rule="evenodd"/>
  <path fill="#ffffff" d="M 143.588 26.92 L 140.401 13.561 L 143.166 13.561 L 145.182 22.733 L 147.62 13.561 L 150.823 13.561 L 153.166 22.889 L 155.213 13.561 L 157.932 13.561 L 154.682 26.92 L 151.823 26.92 L 149.166 16.936 L 146.51 26.92 L 143.588 26.92 Z M 164.547 23.842 L 167.094 24.264 C 166.771 25.201 166.256 25.915 165.547 26.405 C 164.839 26.894 163.954 27.139 162.891 27.139 C 161.214 27.139 159.969 26.587 159.157 25.483 C 158.521 24.608 158.204 23.498 158.204 22.155 C 158.204 20.55 158.62 19.295 159.454 18.389 C 160.297 17.483 161.36 17.03 162.641 17.03 C 164.079 17.03 165.214 17.504 166.047 18.451 C 166.881 19.399 167.276 20.858 167.235 22.826 L 160.829 22.826 C 160.849 23.587 161.052 24.181 161.438 24.608 C 161.834 25.024 162.329 25.233 162.922 25.233 C 163.318 25.233 163.651 25.123 163.922 24.905 C 164.204 24.686 164.412 24.332 164.547 23.842 Z M 164.704 21.248 C 164.683 20.509 164.49 19.946 164.125 19.561 C 163.761 19.175 163.318 18.983 162.797 18.983 C 162.235 18.983 161.771 19.186 161.407 19.592 C 161.042 19.998 160.865 20.55 160.875 21.248 L 164.704 21.248 Z M 169.329 15.936 L 169.329 13.561 L 171.892 13.561 L 171.892 15.936 L 169.329 15.936 Z M 169.329 26.92 L 169.329 17.248 L 171.892 17.248 L 171.892 26.92 L 169.329 26.92 Z M 174.278 27.561 L 177.2 27.92 C 177.242 28.254 177.351 28.483 177.528 28.608 C 177.778 28.795 178.164 28.889 178.684 28.889 C 179.351 28.889 179.851 28.79 180.184 28.592 C 180.403 28.457 180.575 28.238 180.7 27.936 C 180.773 27.728 180.809 27.337 180.809 26.764 L 180.809 25.358 C 180.049 26.399 179.085 26.92 177.919 26.92 C 176.617 26.92 175.585 26.368 174.825 25.264 C 174.231 24.399 173.934 23.321 173.934 22.03 C 173.934 20.405 174.325 19.165 175.106 18.311 C 175.888 17.457 176.856 17.03 178.013 17.03 C 179.21 17.03 180.2 17.556 180.981 18.608 L 180.981 17.248 L 183.372 17.248 L 183.372 25.92 C 183.372 27.066 183.278 27.92 183.091 28.483 C 182.903 29.045 182.638 29.488 182.294 29.811 C 181.96 30.134 181.507 30.384 180.934 30.561 C 180.372 30.748 179.653 30.842 178.778 30.842 C 177.143 30.842 175.981 30.561 175.294 29.998 C 174.606 29.436 174.263 28.728 174.263 27.873 C 174.263 27.78 174.268 27.675 174.278 27.561 Z M 176.559 21.889 C 176.559 22.91 176.757 23.66 177.153 24.139 C 177.549 24.618 178.039 24.858 178.622 24.858 C 179.247 24.858 179.773 24.613 180.2 24.123 C 180.638 23.634 180.856 22.91 180.856 21.951 C 180.856 20.941 180.648 20.196 180.231 19.717 C 179.825 19.228 179.304 18.983 178.669 18.983 C 178.054 18.983 177.549 19.222 177.153 19.701 C 176.757 20.181 176.559 20.91 176.559 21.889 Z M 188.455 13.561 L 188.455 18.483 C 189.278 17.514 190.263 17.03 191.409 17.03 C 192.002 17.03 192.534 17.139 193.002 17.358 C 193.481 17.576 193.841 17.858 194.08 18.201 C 194.32 18.535 194.481 18.91 194.565 19.326 C 194.659 19.733 194.705 20.373 194.705 21.248 L 194.705 26.92 L 192.143 26.92 L 192.143 21.811 C 192.143 20.8 192.091 20.16 191.987 19.889 C 191.893 19.608 191.721 19.389 191.471 19.233 C 191.231 19.066 190.929 18.983 190.565 18.983 C 190.138 18.983 189.757 19.087 189.424 19.295 C 189.091 19.504 188.846 19.816 188.69 20.233 C 188.534 20.649 188.455 21.264 188.455 22.076 L 188.455 26.92 L 185.893 26.92 L 185.893 13.561 L 188.455 13.561 Z M 201.742 17.248 L 201.742 19.28 L 199.992 19.28 L 199.992 23.186 C 199.992 23.978 200.008 24.441 200.039 24.576 C 200.07 24.701 200.143 24.806 200.258 24.889 C 200.383 24.972 200.528 25.014 200.695 25.014 C 200.935 25.014 201.278 24.931 201.726 24.764 L 201.945 26.764 C 201.351 27.014 200.679 27.139 199.929 27.139 C 199.461 27.139 199.039 27.061 198.664 26.905 C 198.299 26.748 198.028 26.55 197.851 26.311 C 197.685 26.061 197.57 25.728 197.508 25.311 C 197.445 25.009 197.414 24.405 197.414 23.498 L 197.414 19.28 L 196.242 19.28 L 196.242 17.248 L 197.414 17.248 L 197.414 15.326 L 199.992 13.826 L 199.992 17.248 L 201.742 17.248 Z M 202.611 24.155 L 205.173 23.764 C 205.288 24.264 205.512 24.644 205.845 24.905 C 206.179 25.165 206.647 25.295 207.252 25.295 C 207.908 25.295 208.403 25.17 208.736 24.92 C 208.965 24.754 209.08 24.53 209.08 24.248 C 209.08 24.05 209.017 23.889 208.892 23.764 C 208.767 23.639 208.481 23.524 208.033 23.42 C 205.97 22.962 204.663 22.545 204.111 22.17 C 203.351 21.649 202.97 20.925 202.97 19.998 C 202.97 19.155 203.298 18.451 203.955 17.889 C 204.621 17.316 205.647 17.03 207.033 17.03 C 208.356 17.03 209.34 17.248 209.986 17.686 C 210.632 18.113 211.074 18.748 211.314 19.592 L 208.908 20.03 C 208.804 19.655 208.606 19.368 208.314 19.17 C 208.033 18.972 207.621 18.873 207.08 18.873 C 206.413 18.873 205.934 18.967 205.642 19.155 C 205.444 19.29 205.345 19.462 205.345 19.67 C 205.345 19.847 205.429 20.004 205.595 20.139 C 205.824 20.306 206.621 20.545 207.986 20.858 C 209.351 21.16 210.304 21.54 210.845 21.998 C 211.377 22.446 211.642 23.076 211.642 23.889 C 211.642 24.785 211.272 25.55 210.533 26.186 C 209.793 26.821 208.699 27.139 207.252 27.139 C 205.929 27.139 204.882 26.873 204.111 26.342 C 203.351 25.8 202.851 25.071 202.611 24.155 Z" fill-rule="nonzero"/>
  <path fill="#000000" fill-opacity="0.0" d="M 301.94 141.005 L 409.625 141.005 L 409.625 205.635 L 301.94 205.635 L 301.94 141.005 Z" fill-rule="evenodd"/>
  <path fill="#ffffff" d="M 317.229 167.926 L 314.041 154.566 L 316.807 154.566 L 318.823 163.738 L 321.26 154.566 L 324.463 154.566 L 326.807 163.894 L 328.854 154.566 L 331.573 154.566 L 328.323 167.926 L 325.463 167.926 L 322.807 157.941 L 320.151 167.926 L 317.229 167.926 Z M 338.188 164.847 L 340.735 165.269 C 340.412 166.207 339.896 166.92 339.188 167.41 C 338.48 167.899 337.594 168.144 336.532 168.144 C 334.855 168.144 333.61 167.592 332.797 166.488 C 332.162 165.613 331.844 164.504 331.844 163.16 C 331.844 161.556 332.261 160.3 333.094 159.394 C 333.938 158.488 335 158.035 336.282 158.035 C 337.719 158.035 338.855 158.509 339.688 159.457 C 340.521 160.405 340.917 161.863 340.875 163.832 L 334.469 163.832 C 334.49 164.592 334.693 165.186 335.078 165.613 C 335.474 166.03 335.969 166.238 336.563 166.238 C 336.959 166.238 337.292 166.129 337.563 165.91 C 337.844 165.691 338.052 165.337 338.188 164.847 Z M 338.344 162.254 C 338.323 161.514 338.131 160.952 337.766 160.566 C 337.401 160.181 336.959 159.988 336.438 159.988 C 335.875 159.988 335.412 160.191 335.047 160.597 C 334.683 161.004 334.506 161.556 334.516 162.254 L 338.344 162.254 Z M 342.97 156.941 L 342.97 154.566 L 345.532 154.566 L 345.532 156.941 L 342.97 156.941 Z M 342.97 167.925 L 342.97 158.254 L 345.532 158.254 L 345.532 167.925 L 342.97 167.925 Z M 347.919 168.566 L 350.841 168.925 C 350.882 169.259 350.992 169.488 351.169 169.613 C 351.419 169.8 351.804 169.894 352.325 169.894 C 352.992 169.894 353.492 169.795 353.825 169.597 C 354.044 169.462 354.216 169.243 354.341 168.941 C 354.414 168.733 354.45 168.342 354.45 167.769 L 354.45 166.363 C 353.69 167.405 352.726 167.925 351.559 167.925 C 350.257 167.925 349.226 167.373 348.466 166.269 C 347.872 165.405 347.575 164.327 347.575 163.035 C 347.575 161.41 347.966 160.17 348.747 159.316 C 349.528 158.462 350.497 158.035 351.653 158.035 C 352.851 158.035 353.841 158.561 354.622 159.613 L 354.622 158.254 L 357.012 158.254 L 357.012 166.925 C 357.012 168.071 356.919 168.925 356.731 169.488 C 356.544 170.05 356.278 170.493 355.934 170.816 C 355.601 171.139 355.148 171.389 354.575 171.566 C 354.012 171.754 353.294 171.847 352.419 171.847 C 350.783 171.847 349.622 171.566 348.934 171.004 C 348.247 170.441 347.903 169.733 347.903 168.879 C 347.903 168.785 347.908 168.681 347.919 168.566 Z M 350.2 162.894 C 350.2 163.915 350.398 164.665 350.794 165.144 C 351.19 165.623 351.679 165.863 352.262 165.863 C 352.887 165.863 353.414 165.618 353.841 165.129 C 354.278 164.639 354.497 163.915 354.497 162.957 C 354.497 161.946 354.289 161.202 353.872 160.722 C 353.466 160.233 352.945 159.988 352.309 159.988 C 351.695 159.988 351.19 160.228 350.794 160.707 C 350.398 161.186 350.2 161.915 350.2 162.894 Z M 362.096 154.566 L 362.096 159.488 C 362.919 158.519 363.903 158.035 365.049 158.035 C 365.643 158.035 366.174 158.144 366.643 158.363 C 367.122 158.582 367.481 158.863 367.721 159.207 C 367.961 159.54 368.122 159.915 368.205 160.332 C 368.299 160.738 368.346 161.379 368.346 162.254 L 368.346 167.925 L 365.783 167.925 L 365.783 162.816 C 365.783 161.806 365.731 161.165 365.627 160.894 C 365.533 160.613 365.362 160.394 365.112 160.238 C 364.872 160.071 364.57 159.988 364.205 159.988 C 363.778 159.988 363.398 160.092 363.065 160.3 C 362.731 160.509 362.487 160.821 362.33 161.238 C 362.174 161.655 362.096 162.269 362.096 163.082 L 362.096 167.925 L 359.533 167.925 L 359.533 154.566 L 362.096 154.566 Z M 375.383 158.254 L 375.383 160.285 L 373.633 160.285 L 373.633 164.191 C 373.633 164.983 373.648 165.446 373.679 165.582 C 373.711 165.707 373.784 165.811 373.898 165.894 C 374.023 165.978 374.169 166.019 374.336 166.019 C 374.575 166.019 374.919 165.936 375.367 165.769 L 375.586 167.769 C 374.992 168.019 374.32 168.144 373.57 168.144 C 373.101 168.144 372.679 168.066 372.304 167.91 C 371.94 167.754 371.669 167.556 371.492 167.316 C 371.325 167.066 371.211 166.733 371.148 166.316 C 371.086 166.014 371.054 165.41 371.054 164.504 L 371.054 160.285 L 369.883 160.285 L 369.883 158.254 L 371.054 158.254 L 371.054 156.332 L 373.633 154.832 L 373.633 158.254 L 375.383 158.254 Z M 382.752 164.847 L 385.298 165.269 C 384.975 166.207 384.46 166.92 383.752 167.41 C 383.043 167.899 382.158 168.144 381.095 168.144 C 379.418 168.144 378.173 167.592 377.361 166.488 C 376.725 165.613 376.408 164.504 376.408 163.16 C 376.408 161.556 376.824 160.3 377.658 159.394 C 378.502 158.488 379.564 158.035 380.845 158.035 C 382.283 158.035 383.418 158.509 384.252 159.457 C 385.085 160.405 385.481 161.863 385.439 163.832 L 379.033 163.832 C 379.054 164.592 379.257 165.186 379.642 165.613 C 380.038 166.03 380.533 166.238 381.127 166.238 C 381.522 166.238 381.856 166.129 382.127 165.91 C 382.408 165.691 382.616 165.337 382.752 164.847 Z M 382.908 162.254 C 382.887 161.514 382.694 160.952 382.33 160.566 C 381.965 160.181 381.522 159.988 381.002 159.988 C 380.439 159.988 379.975 160.191 379.611 160.597 C 379.246 161.004 379.069 161.556 379.08 162.254 L 382.908 162.254 Z M 396.408 167.925 L 394.018 167.925 L 394.018 166.504 C 393.622 167.056 393.153 167.467 392.612 167.738 C 392.08 168.009 391.544 168.144 391.002 168.144 C 389.888 168.144 388.935 167.696 388.143 166.8 C 387.351 165.905 386.955 164.655 386.955 163.05 C 386.955 161.415 387.341 160.17 388.112 159.316 C 388.882 158.462 389.856 158.035 391.033 158.035 C 392.117 158.035 393.054 158.483 393.846 159.379 L 393.846 154.566 L 396.408 154.566 L 396.408 167.925 Z M 389.565 162.879 C 389.565 163.91 389.711 164.655 390.002 165.113 C 390.408 165.79 390.981 166.129 391.721 166.129 C 392.315 166.129 392.815 165.879 393.221 165.379 C 393.638 164.868 393.846 164.118 393.846 163.129 C 393.846 162.014 393.643 161.212 393.237 160.722 C 392.841 160.233 392.33 159.988 391.705 159.988 C 391.101 159.988 390.591 160.233 390.174 160.722 C 389.768 161.202 389.565 161.92 389.565 162.879 Z" fill-rule="nonzero"/>
  <path fill="#ffffff" d="M 336.24 185.982 L 338.865 185.732 C 339.021 186.607 339.339 187.253 339.818 187.669 C 340.308 188.075 340.964 188.279 341.787 188.279 C 342.652 188.279 343.303 188.096 343.74 187.732 C 344.188 187.367 344.412 186.94 344.412 186.45 C 344.412 186.128 344.318 185.857 344.131 185.638 C 343.943 185.419 343.62 185.227 343.162 185.06 C 342.839 184.956 342.115 184.763 340.99 184.482 C 339.553 184.117 338.542 183.674 337.959 183.154 C 337.136 182.424 336.725 181.529 336.725 180.466 C 336.725 179.789 336.917 179.154 337.303 178.56 C 337.688 177.966 338.24 177.518 338.959 177.216 C 339.688 176.904 340.568 176.747 341.6 176.747 C 343.277 176.747 344.537 177.117 345.381 177.857 C 346.235 178.586 346.683 179.565 346.725 180.794 L 344.021 180.904 C 343.907 180.216 343.657 179.727 343.271 179.435 C 342.896 179.133 342.329 178.982 341.568 178.982 C 340.787 178.982 340.173 179.138 339.725 179.45 C 339.443 179.659 339.303 179.94 339.303 180.294 C 339.303 180.607 339.438 180.872 339.709 181.091 C 340.042 181.383 340.865 181.685 342.178 181.997 C 343.49 182.299 344.459 182.617 345.084 182.95 C 345.719 183.284 346.214 183.737 346.568 184.31 C 346.923 184.883 347.1 185.591 347.1 186.435 C 347.1 187.206 346.886 187.924 346.459 188.591 C 346.032 189.258 345.428 189.753 344.646 190.075 C 343.876 190.398 342.912 190.56 341.756 190.56 C 340.068 190.56 338.771 190.169 337.865 189.388 C 336.959 188.607 336.417 187.471 336.24 185.982 Z M 355.715 190.325 L 355.715 188.872 C 355.361 189.393 354.897 189.805 354.324 190.107 C 353.752 190.398 353.147 190.544 352.512 190.544 C 351.866 190.544 351.283 190.404 350.762 190.122 C 350.252 189.831 349.877 189.43 349.637 188.919 C 349.408 188.398 349.293 187.685 349.293 186.779 L 349.293 180.654 L 351.856 180.654 L 351.856 185.091 C 351.856 186.456 351.903 187.294 351.996 187.607 C 352.09 187.909 352.262 188.148 352.512 188.325 C 352.762 188.503 353.08 188.591 353.465 188.591 C 353.903 188.591 354.293 188.471 354.637 188.232 C 354.981 187.992 355.215 187.695 355.34 187.341 C 355.475 186.987 355.543 186.117 355.543 184.732 L 355.543 180.654 L 358.09 180.654 L 358.09 190.325 L 355.715 190.325 Z M 360.549 180.654 L 362.908 180.654 L 362.908 181.966 C 363.752 180.945 364.757 180.435 365.924 180.435 C 366.549 180.435 367.085 180.565 367.533 180.825 C 367.991 181.075 368.366 181.456 368.658 181.966 C 369.085 181.456 369.543 181.075 370.033 180.825 C 370.533 180.565 371.059 180.435 371.611 180.435 C 372.319 180.435 372.918 180.581 373.408 180.872 C 373.908 181.154 374.278 181.575 374.517 182.138 C 374.694 182.555 374.783 183.221 374.783 184.138 L 374.783 190.325 L 372.22 190.325 L 372.22 184.794 C 372.22 183.836 372.132 183.216 371.955 182.935 C 371.726 182.57 371.361 182.388 370.861 182.388 C 370.507 182.388 370.168 182.497 369.845 182.716 C 369.533 182.935 369.309 183.258 369.174 183.685 C 369.038 184.102 368.97 184.768 368.97 185.685 L 368.97 190.325 L 366.408 190.325 L 366.408 185.029 C 366.408 184.081 366.361 183.471 366.267 183.2 C 366.174 182.93 366.033 182.727 365.845 182.591 C 365.658 182.456 365.397 182.388 365.064 182.388 C 364.668 182.388 364.314 182.497 364.002 182.716 C 363.689 182.924 363.46 183.232 363.314 183.638 C 363.179 184.034 363.111 184.695 363.111 185.622 L 363.111 190.325 L 360.549 190.325 L 360.549 180.654 Z" fill-rule="nonzero"/>
  <path fill="#000000" fill-opacity="0.0" d="M 437.404 141.005 L 583.83 141.005 L 583.83 205.635 L 437.404 205.635 L 437.404 141.005 Z" fill-rule="evenodd"/>
  <path fill="#ffffff" d="M 478.931 167.926 L 475.994 167.926 L 474.822 164.894 L 469.494 164.894 L 468.384 167.926 L 465.525 167.926 L 470.728 154.566 L 473.572 154.566 L 478.931 167.926 Z M 473.962 162.644 L 472.119 157.691 L 470.322 162.644 L 473.962 162.644 Z M 488.779 161.113 L 486.248 161.566 C 486.165 161.066 485.972 160.691 485.67 160.441 C 485.368 160.181 484.977 160.05 484.498 160.05 C 483.862 160.05 483.352 160.269 482.967 160.707 C 482.592 161.144 482.404 161.879 482.404 162.91 C 482.404 164.066 482.597 164.879 482.982 165.347 C 483.368 165.816 483.883 166.05 484.529 166.05 C 485.019 166.05 485.42 165.915 485.732 165.644 C 486.045 165.363 486.264 164.889 486.389 164.222 L 488.904 164.644 C 488.644 165.8 488.139 166.675 487.389 167.269 C 486.649 167.853 485.659 168.144 484.42 168.144 C 483.003 168.144 481.873 167.702 481.029 166.816 C 480.196 165.92 479.779 164.681 479.779 163.097 C 479.779 161.504 480.201 160.264 481.045 159.379 C 481.889 158.483 483.029 158.035 484.467 158.035 C 485.644 158.035 486.576 158.29 487.264 158.8 C 487.961 159.3 488.467 160.071 488.779 161.113 Z M 495.155 158.254 L 495.155 160.285 L 493.405 160.285 L 493.405 164.191 C 493.405 164.983 493.42 165.446 493.452 165.582 C 493.483 165.707 493.556 165.811 493.67 165.894 C 493.795 165.978 493.941 166.019 494.108 166.019 C 494.348 166.019 494.691 165.936 495.139 165.769 L 495.358 167.769 C 494.764 168.019 494.092 168.144 493.342 168.144 C 492.874 168.144 492.452 168.066 492.077 167.91 C 491.712 167.754 491.441 167.556 491.264 167.316 C 491.098 167.066 490.983 166.733 490.92 166.316 C 490.858 166.014 490.827 165.41 490.827 164.504 L 490.827 160.285 L 489.655 160.285 L 489.655 158.254 L 490.827 158.254 L 490.827 156.332 L 493.405 154.832 L 493.405 158.254 L 495.155 158.254 Z M 496.93 156.941 L 496.93 154.566 L 499.493 154.566 L 499.493 156.941 L 496.93 156.941 Z M 496.93 167.925 L 496.93 158.254 L 499.493 158.254 L 499.493 167.925 L 496.93 167.925 Z M 504.77 167.925 L 500.863 158.254 L 503.551 158.254 L 505.379 163.191 L 505.91 164.832 C 506.046 164.415 506.134 164.139 506.176 164.004 C 506.259 163.733 506.348 163.462 506.441 163.191 L 508.285 158.254 L 510.91 158.254 L 507.066 167.925 L 504.77 167.925 Z M 514.395 161.207 L 512.067 160.785 C 512.338 159.847 512.791 159.155 513.427 158.707 C 514.062 158.259 515.01 158.035 516.27 158.035 C 517.406 158.035 518.255 158.17 518.817 158.441 C 519.38 158.712 519.77 159.056 519.989 159.472 C 520.218 159.889 520.333 160.649 520.333 161.754 L 520.317 164.754 C 520.317 165.597 520.354 166.222 520.427 166.629 C 520.51 167.035 520.666 167.467 520.895 167.925 L 518.364 167.925 C 518.291 167.759 518.208 167.509 518.114 167.175 C 518.072 167.019 518.041 166.915 518.02 166.863 C 517.583 167.29 517.114 167.613 516.614 167.832 C 516.125 168.04 515.593 168.144 515.02 168.144 C 514.031 168.144 513.25 167.873 512.677 167.332 C 512.104 166.79 511.817 166.108 511.817 165.285 C 511.817 164.733 511.947 164.243 512.208 163.816 C 512.468 163.389 512.833 163.066 513.302 162.847 C 513.77 162.618 514.447 162.415 515.333 162.238 C 516.531 162.019 517.359 161.811 517.817 161.613 L 517.817 161.363 C 517.817 160.863 517.697 160.509 517.458 160.3 C 517.218 160.092 516.76 159.988 516.083 159.988 C 515.625 159.988 515.265 160.082 515.005 160.269 C 514.755 160.446 514.552 160.759 514.395 161.207 Z M 517.817 163.285 C 517.494 163.389 516.973 163.519 516.255 163.675 C 515.546 163.821 515.083 163.967 514.864 164.113 C 514.531 164.353 514.364 164.655 514.364 165.019 C 514.364 165.373 514.5 165.686 514.77 165.957 C 515.041 166.217 515.38 166.347 515.786 166.347 C 516.255 166.347 516.697 166.191 517.114 165.879 C 517.427 165.649 517.63 165.368 517.723 165.035 C 517.786 164.816 517.817 164.399 517.817 163.785 L 517.817 163.285 Z M 527.302 158.254 L 527.302 160.285 L 525.552 160.285 L 525.552 164.191 C 525.552 164.983 525.568 165.446 525.599 165.582 C 525.63 165.707 525.703 165.811 525.818 165.894 C 525.943 165.978 526.089 166.019 526.255 166.019 C 526.495 166.019 526.839 165.936 527.287 165.769 L 527.505 167.769 C 526.912 168.019 526.24 168.144 525.49 168.144 C 525.021 168.144 524.599 168.066 524.224 167.91 C 523.86 167.754 523.589 167.556 523.412 167.316 C 523.245 167.066 523.13 166.733 523.068 166.316 C 523.005 166.014 522.974 165.41 522.974 164.504 L 522.974 160.285 L 521.802 160.285 L 521.802 158.254 L 522.974 158.254 L 522.974 156.332 L 525.552 154.832 L 525.552 158.254 L 527.302 158.254 Z M 529.077 156.941 L 529.077 154.566 L 531.64 154.566 L 531.64 156.941 L 529.077 156.941 Z M 529.077 167.925 L 529.077 158.254 L 531.64 158.254 L 531.64 167.925 L 529.077 167.925 Z M 533.667 162.957 C 533.667 162.103 533.875 161.28 534.292 160.488 C 534.709 159.686 535.302 159.077 536.073 158.66 C 536.844 158.243 537.703 158.035 538.651 158.035 C 540.11 158.035 541.308 158.509 542.245 159.457 C 543.183 160.405 543.651 161.608 543.651 163.066 C 543.651 164.524 543.177 165.738 542.23 166.707 C 541.282 167.665 540.094 168.144 538.667 168.144 C 537.782 168.144 536.933 167.946 536.12 167.55 C 535.318 167.144 534.709 166.556 534.292 165.785 C 533.875 165.004 533.667 164.061 533.667 162.957 Z M 536.292 163.082 C 536.292 164.05 536.516 164.79 536.964 165.3 C 537.422 165.8 537.985 166.05 538.651 166.05 C 539.318 166.05 539.875 165.8 540.323 165.3 C 540.782 164.79 541.011 164.045 541.011 163.066 C 541.011 162.118 540.782 161.389 540.323 160.879 C 539.875 160.368 539.318 160.113 538.651 160.113 C 537.985 160.113 537.422 160.368 536.964 160.879 C 536.516 161.389 536.292 162.123 536.292 163.082 Z M 554.454 167.925 L 551.891 167.925 L 551.891 162.988 C 551.891 161.946 551.834 161.274 551.719 160.972 C 551.615 160.66 551.438 160.42 551.188 160.254 C 550.948 160.077 550.657 159.988 550.313 159.988 C 549.865 159.988 549.464 160.113 549.11 160.363 C 548.756 160.603 548.511 160.925 548.376 161.332 C 548.251 161.728 548.188 162.467 548.188 163.55 L 548.188 167.925 L 545.641 167.925 L 545.641 158.254 L 548.016 158.254 L 548.016 159.675 C 548.86 158.582 549.922 158.035 551.204 158.035 C 551.766 158.035 552.282 158.139 552.751 158.347 C 553.219 158.545 553.573 158.806 553.813 159.129 C 554.053 159.441 554.219 159.8 554.313 160.207 C 554.407 160.603 554.454 161.17 554.454 161.91 L 554.454 167.925 Z" fill-rule="nonzero"/>
  <path fill="#ffffff" d="M 472.616 190.326 L 472.616 176.966 L 481.772 176.966 L 481.772 179.232 L 475.319 179.232 L 475.319 182.388 L 480.882 182.388 L 480.882 184.654 L 475.319 184.654 L 475.319 190.326 L 472.616 190.326 Z M 490.34 190.326 L 490.34 188.872 C 489.986 189.393 489.523 189.805 488.95 190.107 C 488.377 190.398 487.773 190.544 487.137 190.544 C 486.491 190.544 485.908 190.404 485.387 190.122 C 484.877 189.831 484.502 189.43 484.262 188.919 C 484.033 188.398 483.918 187.685 483.918 186.779 L 483.918 180.654 L 486.481 180.654 L 486.481 185.091 C 486.481 186.456 486.528 187.294 486.622 187.607 C 486.715 187.909 486.887 188.148 487.137 188.326 C 487.387 188.503 487.705 188.591 488.09 188.591 C 488.528 188.591 488.918 188.471 489.262 188.232 C 489.606 187.992 489.84 187.695 489.965 187.341 C 490.101 186.987 490.168 186.117 490.168 184.732 L 490.168 180.654 L 492.715 180.654 L 492.715 190.326 L 490.34 190.326 Z M 504.174 190.326 L 501.611 190.326 L 501.611 185.388 C 501.611 184.346 501.554 183.674 501.439 183.372 C 501.335 183.06 501.158 182.82 500.908 182.654 C 500.669 182.477 500.377 182.388 500.033 182.388 C 499.585 182.388 499.184 182.513 498.83 182.763 C 498.476 183.003 498.231 183.326 498.096 183.732 C 497.971 184.128 497.908 184.867 497.908 185.951 L 497.908 190.326 L 495.361 190.326 L 495.361 180.654 L 497.736 180.654 L 497.736 182.076 C 498.58 180.982 499.643 180.435 500.924 180.435 C 501.486 180.435 502.002 180.539 502.471 180.747 C 502.939 180.945 503.294 181.206 503.533 181.529 C 503.773 181.841 503.939 182.201 504.033 182.607 C 504.127 183.003 504.174 183.57 504.174 184.31 L 504.174 190.326 Z M 515.21 183.513 L 512.679 183.966 C 512.596 183.466 512.403 183.091 512.101 182.841 C 511.799 182.581 511.408 182.451 510.929 182.451 C 510.294 182.451 509.783 182.669 509.398 183.107 C 509.023 183.544 508.835 184.279 508.835 185.31 C 508.835 186.466 509.028 187.279 509.413 187.747 C 509.799 188.216 510.315 188.451 510.96 188.451 C 511.45 188.451 511.851 188.315 512.163 188.044 C 512.476 187.763 512.695 187.289 512.82 186.622 L 515.335 187.044 C 515.075 188.201 514.57 189.076 513.82 189.669 C 513.08 190.253 512.091 190.544 510.851 190.544 C 509.434 190.544 508.304 190.102 507.46 189.216 C 506.627 188.32 506.21 187.081 506.21 185.497 C 506.21 183.904 506.632 182.664 507.476 181.779 C 508.32 180.883 509.46 180.435 510.898 180.435 C 512.075 180.435 513.007 180.69 513.695 181.201 C 514.393 181.701 514.898 182.471 515.21 183.513 Z M 521.586 180.654 L 521.586 182.685 L 519.836 182.685 L 519.836 186.591 C 519.836 187.383 519.852 187.846 519.883 187.982 C 519.914 188.107 519.987 188.211 520.102 188.294 C 520.227 188.378 520.373 188.419 520.539 188.419 C 520.779 188.419 521.123 188.336 521.57 188.169 L 521.789 190.169 C 521.195 190.419 520.524 190.544 519.774 190.544 C 519.305 190.544 518.883 190.466 518.508 190.31 C 518.143 190.154 517.873 189.956 517.695 189.716 C 517.529 189.466 517.414 189.133 517.352 188.716 C 517.289 188.414 517.258 187.81 517.258 186.904 L 517.258 182.685 L 516.086 182.685 L 516.086 180.654 L 517.258 180.654 L 517.258 178.732 L 519.836 177.232 L 519.836 180.654 L 521.586 180.654 Z M 523.361 179.341 L 523.361 176.966 L 525.924 176.966 L 525.924 179.341 L 523.361 179.341 Z M 523.361 190.326 L 523.361 180.654 L 525.924 180.654 L 525.924 190.326 L 523.361 190.326 Z M 527.951 185.357 C 527.951 184.503 528.159 183.68 528.576 182.888 C 528.992 182.086 529.586 181.477 530.357 181.06 C 531.128 180.643 531.987 180.435 532.935 180.435 C 534.394 180.435 535.591 180.909 536.529 181.857 C 537.466 182.805 537.935 184.008 537.935 185.466 C 537.935 186.924 537.461 188.138 536.513 189.107 C 535.565 190.065 534.378 190.544 532.951 190.544 C 532.065 190.544 531.216 190.346 530.404 189.951 C 529.602 189.544 528.992 188.956 528.576 188.185 C 528.159 187.404 527.951 186.461 527.951 185.357 Z M 530.576 185.482 C 530.576 186.451 530.8 187.19 531.248 187.701 C 531.706 188.201 532.269 188.451 532.935 188.451 C 533.602 188.451 534.159 188.201 534.607 187.701 C 535.065 187.19 535.295 186.445 535.295 185.466 C 535.295 184.518 535.065 183.789 534.607 183.279 C 534.159 182.768 533.602 182.513 532.935 182.513 C 532.269 182.513 531.706 182.768 531.248 183.279 C 530.8 183.789 530.576 184.523 530.576 185.482 Z M 548.737 190.326 L 546.175 190.326 L 546.175 185.388 C 546.175 184.346 546.118 183.674 546.003 183.372 C 545.899 183.06 545.722 182.82 545.472 182.654 C 545.232 182.477 544.941 182.388 544.597 182.388 C 544.149 182.388 543.748 182.513 543.394 182.763 C 543.04 183.003 542.795 183.326 542.659 183.732 C 542.534 184.128 542.472 184.867 542.472 185.951 L 542.472 190.326 L 539.925 190.326 L 539.925 180.654 L 542.3 180.654 L 542.3 182.076 C 543.144 180.982 544.206 180.435 545.487 180.435 C 546.05 180.435 546.566 180.539 547.034 180.747 C 547.503 180.945 547.857 181.206 548.097 181.529 C 548.336 181.841 548.503 182.201 548.597 182.607 C 548.691 183.003 548.737 183.57 548.737 184.31 L 548.737 190.326 Z" fill-rule="nonzero"/>
  <path fill="#000000" fill-opacity="0.0" d="M 580.717 163.62 L 727.142 163.62 L 727.142 205.635 L 580.717 205.635 L 580.717 163.62 Z" fill-rule="evenodd"/>
  <path fill="#ffffff" d="M 624.179 183.946 C 624.179 182.581 624.383 181.441 624.789 180.524 C 625.091 179.837 625.502 179.227 626.023 178.696 C 626.554 178.154 627.133 177.753 627.758 177.493 C 628.591 177.139 629.549 176.962 630.633 176.962 C 632.601 176.962 634.174 177.571 635.351 178.79 C 636.539 180.008 637.133 181.706 637.133 183.883 C 637.133 186.04 636.544 187.727 635.367 188.946 C 634.2 190.165 632.638 190.774 630.679 190.774 C 628.69 190.774 627.107 190.17 625.929 188.962 C 624.763 187.743 624.179 186.071 624.179 183.946 Z M 626.961 183.852 C 626.961 185.363 627.31 186.508 628.008 187.29 C 628.706 188.071 629.591 188.462 630.664 188.462 C 631.737 188.462 632.617 188.076 633.304 187.305 C 634.002 186.524 634.351 185.363 634.351 183.821 C 634.351 182.29 634.013 181.149 633.336 180.399 C 632.669 179.639 631.778 179.258 630.664 179.258 C 629.549 179.258 628.653 179.644 627.976 180.415 C 627.299 181.175 626.961 182.321 626.961 183.852 Z M 645.581 190.54 L 645.581 189.087 C 645.227 189.607 644.764 190.019 644.191 190.321 C 643.618 190.613 643.014 190.758 642.378 190.758 C 641.733 190.758 641.149 190.618 640.628 190.337 C 640.118 190.045 639.743 189.644 639.503 189.133 C 639.274 188.613 639.16 187.899 639.16 186.993 L 639.16 180.868 L 641.722 180.868 L 641.722 185.305 C 641.722 186.67 641.769 187.508 641.863 187.821 C 641.956 188.123 642.128 188.363 642.378 188.54 C 642.628 188.717 642.946 188.805 643.331 188.805 C 643.769 188.805 644.16 188.685 644.503 188.446 C 644.847 188.206 645.081 187.909 645.206 187.555 C 645.342 187.201 645.41 186.331 645.41 184.946 L 645.41 180.868 L 647.956 180.868 L 647.956 190.54 L 645.581 190.54 Z M 655.056 180.868 L 655.056 182.899 L 653.306 182.899 L 653.306 186.805 C 653.306 187.597 653.321 188.06 653.352 188.196 C 653.384 188.321 653.457 188.425 653.571 188.508 C 653.696 188.592 653.842 188.633 654.009 188.633 C 654.248 188.633 654.592 188.55 655.04 188.383 L 655.259 190.383 C 654.665 190.633 653.993 190.758 653.243 190.758 C 652.774 190.758 652.352 190.68 651.977 190.524 C 651.613 190.368 651.342 190.17 651.165 189.93 C 650.998 189.68 650.884 189.347 650.821 188.93 C 650.759 188.628 650.727 188.024 650.727 187.118 L 650.727 182.899 L 649.556 182.899 L 649.556 180.868 L 650.727 180.868 L 650.727 178.946 L 653.306 177.446 L 653.306 180.868 L 655.056 180.868 Z M 656.753 180.868 L 659.143 180.868 L 659.143 182.29 C 659.456 181.8 659.872 181.404 660.393 181.102 C 660.925 180.8 661.513 180.649 662.159 180.649 C 663.284 180.649 664.237 181.092 665.018 181.977 C 665.8 182.852 666.19 184.076 666.19 185.649 C 666.19 187.264 665.794 188.519 665.003 189.415 C 664.211 190.31 663.258 190.758 662.143 190.758 C 661.602 190.758 661.112 190.654 660.675 190.446 C 660.247 190.227 659.794 189.863 659.315 189.352 L 659.315 194.227 L 656.753 194.227 L 656.753 180.868 Z M 659.284 185.54 C 659.284 186.623 659.497 187.425 659.925 187.946 C 660.362 188.467 660.888 188.727 661.503 188.727 C 662.107 188.727 662.602 188.488 662.987 188.008 C 663.383 187.529 663.581 186.748 663.581 185.665 C 663.581 184.654 663.378 183.904 662.971 183.415 C 662.565 182.915 662.06 182.665 661.456 182.665 C 660.831 182.665 660.31 182.909 659.893 183.399 C 659.487 183.878 659.284 184.592 659.284 185.54 Z M 674.586 190.54 L 674.586 189.087 C 674.232 189.607 673.768 190.019 673.196 190.321 C 672.623 190.613 672.018 190.758 671.383 190.758 C 670.737 190.758 670.154 190.618 669.633 190.337 C 669.123 190.045 668.748 189.644 668.508 189.133 C 668.279 188.613 668.164 187.899 668.164 186.993 L 668.164 180.868 L 670.727 180.868 L 670.727 185.305 C 670.727 186.67 670.774 187.508 670.867 187.821 C 670.961 188.123 671.133 188.363 671.383 188.54 C 671.633 188.717 671.951 188.805 672.336 188.805 C 672.774 188.805 673.164 188.685 673.508 188.446 C 673.852 188.206 674.086 187.909 674.211 187.555 C 674.347 187.201 674.414 186.331 674.414 184.946 L 674.414 180.868 L 676.961 180.868 L 676.961 190.54 L 674.586 190.54 Z M 684.06 180.868 L 684.06 182.899 L 682.31 182.899 L 682.31 186.805 C 682.31 187.597 682.326 188.06 682.357 188.196 C 682.388 188.321 682.461 188.425 682.576 188.508 C 682.701 188.592 682.847 188.633 683.013 188.633 C 683.253 188.633 683.597 188.55 684.045 188.383 L 684.263 190.383 C 683.67 190.633 682.998 190.758 682.248 190.758 C 681.779 190.758 681.357 190.68 680.982 190.524 C 680.618 190.368 680.347 190.17 680.17 189.93 C 680.003 189.68 679.888 189.347 679.826 188.93 C 679.763 188.628 679.732 188.024 679.732 187.118 L 679.732 182.899 L 678.56 182.899 L 678.56 180.868 L 679.732 180.868 L 679.732 178.946 L 682.31 177.446 L 682.31 180.868 L 684.06 180.868 Z" fill-rule="nonzero"/>
</svg>