<?xml version="1.0" encoding="utf-8"?>
<svg viewBox="0 0 800 450" xmlns="http://www.w3.org/2000/svg" xmlns:bx="https://boxy-svg.com">
  <defs>
    <bx:grid x="0" y="0" width="37.217" height="34.955"/>
  </defs>
  <path d="M 256.332 269.53 C 264.448 266.175 258.583 255.278 258.583 255.278 C 258.583 255.278 199.314 244.023 211.32 201.261 C 223.323 158.498 223.323 158.498 223.323 158.498 C 223.323 158.498 237.576 147.994 249.58 139.742 C 261.584 131.492 257.833 128.492 248.079 131.492 C 246.579 128.487 253.331 120.986 254.081 119.489 C 254.83 117.985 267.586 90.228 242.079 127.739 C 242.079 129.989 220.32 154.747 233.075 110.487 C 233.075 110.487 249.58 30.959 230.826 88.726 C 230.826 88.726 226.323 102.981 221.823 93.227 C 221.823 93.227 230.826 123.238 203.067 196.76 C 196.315 190.757 191.814 184.755 191.814 184.755 C 189.563 181.006 188.063 172.003 198.566 152.497 C 209.07 132.99 215.071 120.986 215.071 120.986 C 215.071 120.986 224.822 102.23 212.819 115.734 C 212.819 115.734 213.57 72.975 206.067 125.489 C 206.067 125.489 200.067 134.493 196.315 138.244 C 196.315 138.244 206.821 113.485 194.065 119.489 C 194.065 119.489 187.312 103.735 188.063 121.739 C 188.811 139.742 192.565 143.496 190.314 153.997 C 188.063 164.499 184.311 159.997 183.562 150.994 C 182.811 141.993 161.054 151.747 195.565 206.512 C 195.565 206.512 207.567 263.53 163.305 223.017 C 163.305 223.017 107.788 178.753 179.061 126.237 C 170.057 132.99 166.305 140.496 167.806 131.492 C 169.309 122.487 167.806 123.237 167.806 123.237 C 167.806 123.237 159.553 138.995 154.303 142.745 C 149.052 146.494 128.045 153.247 174.56 100.73 C 165.557 107.482 149.052 120.237 165.557 83.476 C 149.801 108.233 140.049 136.742 131.046 111.985 C 131.046 111.985 140.799 216.262 117.542 148.745 C 117.542 148.745 109.291 135.239 128.796 68.469 C 122.043 83.476 116.04 104.481 117.542 60.967 C 117.542 60.967 110.79 63.219 112.291 111.233 C 112.291 111.233 91.286 159.249 95.787 95.478 C 95.787 95.478 102.541 66.971 103.289 61.717 C 104.037 56.465 99.536 63.219 98.038 66.218 C 96.538 69.22 96.537 54.967 96.537 54.967 C 96.537 54.967 92.034 61.717 91.286 70.72 C 90.538 79.724 83.785 63.968 81.535 60.218 C 79.284 56.465 96.537 84.974 84.534 108.981 C 84.534 108.981 67.282 80.473 65.779 88.723 C 64.277 96.978 101.79 141.993 102.541 144.992 C 103.289 147.994 125.047 169.751 98.038 165.997 C 89.035 165.248 83.785 159.996 79.284 152.495 C 74.781 144.992 65.031 129.987 65.031 129.987 L 43.272 105.229 L 41.769 70.72 L 38.768 78.973 L 33.519 73.723 L 38.02 84.225 L 38.768 98.48 L 33.519 100.73 C 33.519 100.73 96.537 164.502 45.521 140.494 C 45.521 140.494 26.764 145.746 68.777 156.248 C 68.777 156.248 71.777 173.503 107.788 175.752 C 107.788 175.752 134.796 205.013 141.547 232.77 C 141.547 232.77 149.05 292.788 114.54 246.275 C 114.54 246.275 121.294 262.778 116.791 262.778 C 112.29 262.778 90.531 250.024 87.533 250.024 C 84.533 250.024 75.53 254.526 75.53 254.526 C 75.53 254.526 136.296 269.528 79.282 270.282 C 79.282 270.282 38.768 284.535 54.524 189.257 C 54.524 189.257 49.274 217.016 44.772 190.757 C 44.772 190.757 32.77 250.027 44.772 273.282 C 44.772 273.282 56.025 287.534 39.521 288.285 C 39.521 288.285 59.776 285.283 80.032 279.283 C 80.032 279.283 65.029 309.295 57.525 309.295 C 57.525 309.295 64.277 310.792 56.777 315.293 C 56.777 315.293 59.776 321.295 68.029 310.792 C 76.284 300.291 88.287 274.785 117.543 275.534 C 127.298 278.532 163.307 308.541 108.541 319.045 C 92.037 325.799 29.768 348.306 35.02 352.057 C 40.271 355.807 71.779 333.299 66.528 344.553 C 61.278 355.807 44.023 388.068 44.023 388.068 C 44.023 388.068 65.029 340.054 60.527 376.814 C 62.777 379.814 117.542 274.785 78.53 376.814 C 79.282 379.066 88.285 363.307 89.785 384.315 C 89.785 384.315 90.534 304.795 146.801 328.8 C 148.304 349.057 136.296 376.812 104.789 395.568 C 137.048 376.814 142.3 368.559 127.293 400.071 C 134.796 392.568 138.548 393.32 140.799 403.072 C 143.798 369.311 149.801 358.81 155.804 353.558 C 161.805 369.311 164.057 376.061 164.807 379.814 C 165.557 383.566 161.054 326.547 160.307 323.548 C 159.555 320.547 189.563 322.048 189.563 322.048 C 189.563 322.048 212.07 365.562 202.318 385.066 C 207.569 368.559 198.566 335.55 238.328 393.317 C 238.328 393.317 211.322 363.309 254.832 374.563 C 239.828 362.561 212.07 346.056 204.57 333.302 C 197.068 320.547 195.566 303.294 218.823 319.797 C 242.079 336.302 256.333 343.051 258.584 341.553 C 260.836 340.054 214.321 319.045 266.086 328.049 C 233.075 313.793 178.309 301.789 256.332 269.53 Z" id="path3" style="fill: rgb(175, 163, 207); stroke: rgb(0, 0, 0);"/>
  <path d="M 162.462 279.66 C 162.178 269.53 165.557 266.435 171.747 267.28 C 177.934 268.124 184.124 270.937 186.654 273.751 C 189.187 276.565 192.844 281.627 193.408 283.597 C 193.971 285.568 194.252 287.536 194.533 289.506 C 194.815 291.476 195.657 293.444 194.815 295.133 C 193.971 296.821 192.844 300.478 190.595 300.758 C 188.343 301.041 186.938 301.603 184.407 300.196 C 181.874 298.789 177.934 296.257 176.246 294.851 C 174.56 293.444 167.806 286.692 166.4 284.722 C 164.995 282.755 162.462 279.66 162.462 279.66 Z" id="path5" style="fill: rgb(91, 153, 116); stroke: rgb(0, 0, 0);"/>
  <path id="myelin1" d="M 257.833 272.345 C 262.898 262.216 261.492 258.841 260.365 255.746 C 259.241 252.651 300.033 251.245 327.884 267 C 327.884 267 354.331 276.003 330.699 292.882 C 330.699 292.882 286.812 299.352 257.833 272.345 Z" style="fill: rgb(249, 213, 102); stroke: rgb(0, 0, 0);">
    <title>myelin1</title>
  </path>
  <path id="myelin2" d="M 349.83 300.478 C 349.83 300.478 341.67 296.539 344.203 289.225 C 346.735 281.911 348.985 281.911 351.236 281.065 C 353.487 280.222 366.43 280.503 367.554 280.503 C 368.679 280.503 412.003 285.003 417.911 290.069 C 423.82 295.133 425.791 301.323 425.791 303.852 C 425.791 306.386 425.225 314.545 417.349 314.545 C 409.472 314.545 375.995 313.983 374.587 312.574 C 373.182 311.168 355.455 306.386 349.83 300.478 Z" style="fill: rgb(249, 213, 102); stroke: rgb(0, 0, 0);">
    <title>myelin2</title>
  </path>
  <path id="myelin3" d="M 453.362 321.297 C 438.45 316.515 431.977 310.888 432.543 304.979 C 433.105 299.072 434.228 296.821 436.761 295.413 C 439.295 294.006 445.482 292.32 447.17 291.756 C 448.859 291.193 497.529 284.16 502.312 285.284 C 507.095 286.412 513.002 292.039 513.566 295.413 C 514.128 298.789 519.475 306.666 507.376 311.731 C 495.278 316.796 486.275 320.172 478.116 320.733 C 469.958 321.297 453.362 321.297 453.362 321.297 Z" style="fill: rgb(249, 213, 102); stroke: rgb(0, 0, 0);">
    <title>myelin3</title>
  </path>
  <path id="myelin4" d="M 538.323 299.634 C 524.798 300.481 520.598 302.165 520.88 292.039 C 521.16 281.911 520.036 278.253 528.195 274.313 C 536.353 270.375 559.423 255.184 563.08 253.494 C 566.737 251.807 578.553 248.15 583.899 255.184 C 589.244 262.216 588.682 265.311 583.054 271.501 C 577.429 277.689 547.325 299.072 538.323 299.634 Z" style="fill: rgb(249, 213, 102); stroke: rgb(0, 0, 0);">
    <title>myelin4</title>
  </path>
  <path id="myelin5" d="M 587.556 248.712 C 582.064 238.512 579.959 232.959 585.023 225.642 C 590.089 218.328 614.565 183.443 615.409 182.318 C 616.251 181.193 625.818 176.973 634.257 184.287 C 642.698 191.6 644.386 196.665 636.506 207.356 C 628.631 218.048 610.343 246.742 603.873 250.118 C 597.403 253.494 591.495 256.026 587.556 248.712 Z" style="fill: rgb(249, 213, 102); stroke: rgb(0, 0, 0);">
    <title>myelin5</title>
  </path>
  <ellipse cx="285.968" cy="267.001" rx="7.596" ry="4.784" id="ellipse17" style="fill: rgb(230, 139, 96); stroke: rgb(183, 99, 40);"/>
  <ellipse cx="380.213" cy="298.228" rx="7.596" ry="4.784" id="ellipse19" style="fill: rgb(230, 139, 96); stroke: rgb(183, 99, 40);"/>
  <ellipse cx="475.306" cy="304.979" rx="7.596" ry="4.784" id="ellipse21" style="fill: rgb(230, 139, 96); stroke: rgb(183, 99, 40);"/>
  <ellipse cx="258.5" cy="134.214" rx="7.598" ry="4.784" transform="matrix(0.911959, -0.410282, 0.410282, 0.911959, 261.895552, 257.967411)" id="ellipse23" style="fill: rgb(230, 139, 96); stroke: rgb(183, 99, 40);"/>
  <ellipse cx="283.625" cy="107.464" rx="7.598" ry="4.784" transform="matrix(0.542223, -0.840235, 0.840235, 0.542223, 365.11662, 394.170386)" id="ellipse25" style="fill: rgb(230, 139, 96); stroke: rgb(183, 99, 40);"/>
  <path d="M 340.545 280.784 C 345.611 281.911 348.985 281.911 348.985 281.911 L 344.203 289.225 L 334.918 288.944 L 340.545 280.784 Z" id="path27" style="fill: rgb(175, 163, 207); stroke: rgb(0, 0, 0);"/>
  <path d="M 424.945 299.072 L 434.228 298.508 L 432.26 307.793 L 425.225 307.793 C 425.225 307.793 425.791 300.196 424.945 299.072 Z" id="path29" style="fill: rgb(175, 163, 207); stroke: rgb(0, 0, 0);"/>
  <path d="M 511.595 290.912 C 511.595 290.912 519.192 285.284 519.754 283.879 C 520.318 282.473 520.598 295.133 520.88 295.977 C 521.16 296.821 515.818 297.946 515.818 297.946 L 511.595 290.912 Z" id="path31" style="fill: rgb(175, 163, 207); stroke: rgb(0, 0, 0);"/>
  <path d="M 577.707 250.682 L 583.899 241.959 L 590.37 251.807 L 585.867 256.026 C 585.867 256.026 581.93 251.245 577.707 250.682 Z" id="path33" style="fill: rgb(175, 163, 207); stroke: rgb(0, 0, 0);"/>
  <path id="axon_terminal"  d="M 626.194 179.88 C 626.285 179.678 626.378 179.474 626.471 179.272 C 633.84 162.952 639.736 146.024 642.698 138.618 C 645.698 131.116 646.823 113.485 645.698 111.609 C 644.572 109.732 641.195 96.98 632.57 99.606 C 623.942 102.232 626.94 99.606 624.317 103.732 C 621.693 107.857 615.315 108.233 614.939 104.481 C 614.565 100.729 616.065 99.603 622.441 98.478 C 628.818 97.353 625.44 92.852 620.939 88.726 C 616.438 84.6 604.434 84.6 613.062 78.973 C 621.693 73.348 622.066 72.596 625.44 75.221 C 628.818 77.849 618.313 79.724 627.691 85.351 C 637.07 90.976 643.82 94.354 646.823 94.728 C 649.826 95.104 652.449 95.478 652.449 92.103 C 652.449 88.726 656.202 85.351 658.453 83.476 C 660.703 81.6 661.828 74.097 661.828 74.097 C 661.828 74.097 653.951 66.971 660.703 67.72 C 667.456 68.469 670.831 68.847 667.456 72.969 C 668.204 74.097 667.082 77.472 667.831 78.597 C 668.58 79.724 679.835 78.225 679.835 78.225 C 679.835 78.225 689.961 77.473 686.586 83.852 C 685.836 85.725 683.209 88.352 678.707 85.352 C 674.584 86.101 670.456 84.603 669.328 84.977 C 668.204 85.351 653.197 92.104 654.7 125.864 C 664.828 120.237 694.464 102.606 698.214 101.108 C 701.963 99.608 719.97 78.975 720.343 77.097 C 720.722 75.221 716.596 69.598 717.345 68.095 C 718.094 66.595 725.22 63.595 726.722 63.219 C 728.223 62.843 730.1 58.718 731.974 63.595 C 733.849 68.472 733.475 68.472 731.974 69.598 C 730.474 70.723 729.35 71.474 729.722 73.723 C 730.098 75.974 730.474 77.473 731.598 77.097 C 732.725 76.724 733.474 78.973 733.474 78.973 L 718.472 90.976 C 718.472 90.976 732.351 88.35 734.225 86.476 C 736.1 84.6 739.853 82.724 740.601 85.351 C 741.349 87.976 742.102 87.228 740.601 89.101 C 739.099 90.976 736.474 92.852 731.598 94.354 C 726.722 95.854 723.346 97.353 720.343 97.729 C 717.345 98.104 711.72 99.978 711.72 99.978 C 711.72 99.978 708.717 100.729 702.717 105.605 C 696.713 110.483 692.586 112.734 688.836 114.985 C 685.083 117.237 682.46 117.985 678.707 120.612 C 674.956 123.237 668.58 126.237 668.58 126.237 C 668.58 126.237 662.95 128.115 661.452 129.989 C 659.952 131.865 657.327 134.867 656.578 135.993 C 655.824 137.117 654.327 140.867 654.327 140.867 L 652.825 147.619 L 647.947 153.246 L 646.823 158.498 C 646.823 158.498 656.2 159.625 658.076 159.625 C 659.952 159.625 661.452 159.623 664.077 157.747 C 666.704 155.872 666.329 156.996 668.58 154.373 C 670.831 151.747 673.456 149.12 674.584 146.87 C 675.708 144.618 678.332 141.993 680.582 140.118 C 682.833 138.244 685.833 135.614 687.334 135.239 C 688.836 134.867 694.086 133.367 695.212 132.24 C 696.337 131.116 697.466 132.242 698.214 130.365 C 698.964 128.487 701.217 124.74 701.589 122.865 C 701.963 120.989 701.963 120.237 703.465 120.237 C 704.966 120.237 706.092 119.489 706.842 121.362 C 707.591 123.237 709.094 122.865 708.341 125.489 C 707.591 128.111 706.842 129.614 706.842 129.614 L 707.217 130.365 C 707.217 130.365 710.593 131.489 711.72 129.614 C 712.844 127.739 714.719 126.614 714.719 126.614 L 716.969 123.613 L 718.844 120.237 L 720.722 118.737 L 724.098 117.986 C 724.098 117.986 725.223 117.986 725.971 120.613 C 726.722 123.238 727.097 124.365 727.097 125.49 C 727.097 126.617 722.595 129.992 722.595 129.992 L 721.095 131.493 C 721.095 131.493 717.718 132.24 716.594 132.991 C 715.467 133.744 711.72 134.869 711.72 134.869 L 706.465 135.242 L 702.717 137.12 L 701.214 138.245 L 701.214 140.496 C 701.214 140.496 702.717 142.373 703.841 142.748 C 704.966 143.12 711.72 142.748 711.72 142.748 L 713.216 142.372 L 710.966 145.371 L 703.465 146.873 C 703.465 146.873 701.587 147.246 699.713 147.622 C 697.838 147.997 692.962 148.746 692.962 148.746 C 692.962 148.746 688.834 150.623 687.334 151.75 C 685.836 152.874 682.833 152.125 685.458 154 C 688.088 155.874 686.21 157.002 694.462 156.251 C 702.717 155.498 697.466 154.75 704.966 156.999 C 712.468 159.25 713.969 158.502 718.472 160.752 C 722.973 163.003 715.467 161.5 728.223 165.629 C 740.976 169.754 740.599 169.376 749.228 172.379 C 757.857 175.381 756.73 171.253 759.355 176.879 C 761.982 182.507 774.361 183.255 761.982 182.507 C 749.604 181.758 751.857 181.758 745.478 179.507 C 739.099 177.257 739.853 176.879 730.474 173.504 C 721.095 170.127 715.467 165.25 725.598 176.879 C 735.724 188.508 737.975 189.635 739.477 199.761 C 740.976 209.892 741.728 231.648 750.73 232.397 C 759.731 233.146 767.611 235.398 762.359 239.898 C 757.106 244.401 748.475 241.401 745.851 237.275 C 743.227 233.146 737.602 229.396 736.474 223.771 C 735.35 218.144 737.227 213.64 735.35 212.891 C 733.474 212.141 733.474 212.143 731.598 213.641 C 729.722 215.141 730.85 211.764 728.223 217.768 C 725.598 223.771 724.844 224.896 723.346 225.647 C 721.846 226.395 713.969 227.522 713.969 223.771 C 713.969 220.019 715.094 218.89 716.969 218.516 C 718.844 218.144 715.467 221.518 721.471 216.266 C 727.474 211.016 730.1 206.889 730.85 204.642 C 731.598 202.39 735.724 192.26 718.094 179.507 C 700.465 166.752 687.336 158.878 671.205 166.378 C 675.708 173.13 683.961 178.38 683.587 191.886 C 683.587 193.387 689.958 198.638 682.833 200.888 C 681.708 201.263 674.956 201.637 678.707 191.886 C 678.707 187.008 679.836 184.01 670.081 175.381 C 670.456 183.631 669.702 191.883 670.456 194.885 C 671.205 197.888 677.584 205.015 668.956 208.016 C 664.077 206.889 660.325 203.89 665.953 194.511 C 665.953 185.883 656.954 148.748 634.07 183.259 C 628.818 181.755 626.194 179.88 626.194 179.88 Z" style="fill: rgb(175, 163, 207); stroke: rgb(0, 0, 0);">
    <title>axon_terminal</title>
  </path>
  <path id="path37" style="fill: rgb(175, 163, 207); stroke: rgb(0, 0, 0);"/>
  <g id="first_time" style="opacity: 0">
    <title>first_time</title>
    <path style="fill: none; stroke: rgb(146, 255, 104);" d="M 365.953 65.663 L 365.953 216.011"/>
    <path d="M -365.829 -65.542 L -359.042 -51.967 L -372.617 -51.967 L -365.829 -65.542 Z" style="fill: rgb(255, 0, 0);" transform="matrix(-1, 0, 0, -1, 0, 0)" bx:shape="triangle -372.617 -65.542 13.575 13.575 0.5 0 1@25886312"/>
  </g>
  <g id="second_time" style="opacity: 0">
    <title>second_time</title>
    <path style="fill: none; stroke: rgb(146, 255, 104);" d="M 390.809 65.663 L 390.809 216.011"/>
    <path d="M -391.212 -65.542 L -384.425 -51.967 L -398 -51.967 L -391.212 -65.542 Z" style="fill: rgb(255, 0, 0);" transform="matrix(-1, 0, 0, -1, 0, 0)" bx:shape="triangle -398 -65.542 13.575 13.575 0.5 0 1@f653ab0d"/>
  </g>
  <path id="track1" style="stroke: none; fill: none;" d="M 227.941 104.261 C 160.986 198.214 224.677 291.48 246.041 261.501">
    <title>track1</title>
  </path>
  <path id="track2" style="stroke: none; fill: none;" d="M 91.063 90.121 C 111.444 258.726 248.303 260.935 248.303 260.935">
    <title>track2</title>
  </path>
  <path id="track3" style="stroke: none; fill: none;" d="M 49.208 207.202 C 10.71 307.057 244.812 274.621 249.434 262.632">
    <title>track3</title>
  </path>
  <path id="track4" style="stroke: none; fill: none;" d="M 42.986 345.777 C 73.938 350.539 254.24 261.587 250 260.935">
    <title>track4</title>
  </path>
  <path id="track5" style="stroke: none; fill: none;" d="M 233.597 368.401 C 146.116 298.669 242.893 258.204 247.738 262.066">
    <title>track5</title>
  </path>
  <text style="fill: rgb(255, 255, 255); font-family: Arial, sans-serif; font-size: 38px; font-weight: 700; white-space: pre;" transform="matrix(1, 0, 0, 1, -70.585907, 30.438961)"><title>dendrites</title><tspan x="205.882" y="14.643">수상돌기</tspan><tspan x="205.882" dy="1em">​</tspan></text>
  <path style="fill: rgb(216, 216, 216); stroke-width: 5px; stroke: rgb(255, 255, 255);" d="M 166.29 52.226 L 131.222 90.121"/>
  <text style="fill: rgb(255, 255, 255); font-family: Arial, sans-serif; font-size: 38px; font-weight: 700; white-space: pre;" transform="matrix(1, 0, 0, 1, 100.228569, 377.438446)"><title>axon_hillock</title><tspan x="205.882" y="14.643">축삭둔덕</tspan><tspan x="205.882" dy="1em">​</tspan></text>
  <path style="fill: rgb(216, 216, 216); stroke-width: 5px; stroke: rgb(255, 255, 255);" d="M 253.394 279.915 L 316.176 352.313"/>
  <path style="fill: none; stroke-width: 5px; stroke: rgb(255, 255, 255);" d="M 130.222 79.557 L 131.919 89.738 L 141.534 89.172"/>
  <path style="stroke-width: 5px; fill: none; stroke: rgb(255, 255, 255);" d="M 252.394 288.399 L 252.394 279.915 L 262.009 281.046"/>
  <text style="fill: rgb(255, 255, 255); font-family: Arial, sans-serif; font-size: 38px; font-weight: 700; white-space: pre;" x="55.218" y="239.652"><title>SOMA</title>소마</text>
  <text style="fill: rgb(255, 255, 255); font-family: Arial, sans-serif; font-size: 38px; font-weight: 700; white-space: pre;" transform="matrix(1, 0, 0, 1, 384.487976, 285.231445)"><title>axon</title><tspan x="205.882" y="14.643">축삭</tspan><tspan x="205.882" dy="1em">​</tspan></text>
  <path id="input1" d="M 12.119 0 H 18.178 V 12.119 H 30.297 V 18.178 H 18.178 V 30.297 H 12.119 V 18.178 H 0 V 12.119 H 12.119 Z" style="opacity: 0; fill: rgb(255, 0, 0);" bx:shape="cross 0 0 30.297 30.297 6.059 6.059 0.5 1@d73c549f">
    <title>input1</title> 
    <animateMotion dur="1s" begin="0s" restart="always" fill="freeze">
      <mpath href="#track1"/>
    </animateMotion>
  </path>
  <path id="input2" d="M 12.119 0 H 18.178 V 12.119 H 30.297 V 18.178 H 18.178 V 30.297 H 12.119 V 18.178 H 0 V 12.119 H 12.119 Z" style="opacity: 0; fill: rgb(255, 0, 0);" bx:shape="cross 0 0 30.297 30.297 6.059 6.059 0.5 1@d73c549f">
    <title>input2</title>
    <animateMotion dur="1s" begin="0s" restart="always" fill="freeze">
      <mpath href="#track2"/>
    </animateMotion>
  </path>
  <path id="input3" d="M 12.119 0 H 18.178 V 12.119 H 30.297 V 18.178 H 18.178 V 30.297 H 12.119 V 18.178 H 0 V 12.119 H 12.119 Z" style="opacity: 0; fill: rgb(255, 0, 0);" bx:shape="cross 0 0 30.297 30.297 6.059 6.059 0.5 1@d73c549f">
    <title>input3</title>
    <animateMotion dur="1s" begin="0s" restart="always" fill="freeze">
      <mpath href="#track3"/>
    </animateMotion>
  </path>
  <path id="input4" d="M 12.119 0 H 18.178 V 12.119 H 30.297 V 18.178 H 18.178 V 30.297 H 12.119 V 18.178 H 0 V 12.119 H 12.119 Z" style="opacity: 0; fill: rgb(255, 0, 0);" bx:shape="cross 0 0 30.297 30.297 6.059 6.059 0.5 1@d73c549f">
    <title>input4</title>
    <animateMotion dur="1s" begin="0s" restart="always" fill="freeze">
      <mpath href="#track4"/>
    </animateMotion>
  </path>
  <path id="input5" d="M 12.119 0 H 18.178 V 12.119 H 30.297 V 18.178 H 18.178 V 30.297 H 12.119 V 18.178 H 0 V 12.119 H 12.119 Z" style="opacity: 0; fill: rgb(255, 0, 0);" bx:shape="cross 0 0 30.297 30.297 6.059 6.059 0.5 1@d73c549f">
    <title>input5</title>
    <animateMotion dur="1s" begin="0s" restart="always" fill="freeze">
      <mpath href="#track5"/>
    </animateMotion>
  </path>
  <g>
    <title>Graph</title>
    <path style="fill: none; stroke: rgb(255, 255, 255);" d="M 317.873 100.05 L 318.439 209.213 L 524.887 209.779"/>
    <path style="fill: none; stroke: rgb(21, 0, 255);" d="M 317.873 184.139 C 317.873 184.139 324.776 184.665 324.667 183.519 C 324.021 176.698 325.6 173.877 326.544 170.98 C 328.14 166.085 328.633 106.508 330.314 106.088 C 333.18 107.268 331.179 187.142 340.869 193.742 C 346.363 198.836 356.111 190.347 363.688 187.907 C 370.544 182.44 379.091 184.659 386.899 183.953 C 386.899 183.953 390.514 137.815 389.539 115.623 C 389.17 107.221 390.647 102.682 391.233 104.894 C 392.317 108.985 393.243 111.908 393.833 123.639 C 395.734 161.456 394.808 193.363 404.986 194.692 C 415.164 196.021 424.003 185.458 438.143 184.511 C 452.283 183.564 450.41 183.761 450.41 183.761 C 450.41 183.761 451.157 169.999 452.294 160.005 C 453.431 150.011 453.054 112.884 454.948 106.467 C 456.842 100.05 454.738 180.633 464.719 192.607 C 474.7 204.581 488.796 180.085 511.857 184.897"/>
    <path style="fill: rgb(216, 216, 216); stroke: rgb(255, 0, 0); stroke-dasharray: 4px;" d="M 318.955 170.792 L 518.227 170.603"/>
    <path style="fill: none; stroke: rgb(255, 0, 0);" d="M 318.387 97.402 L 324.449 97.402 L 324.828 52.319 L 330.51 52.509 L 331.078 97.402 L 387.336 97.591 L 387.526 78.46 L 394.156 78.838 L 394.156 97.402 L 450.983 97.781 L 450.983 86.226 L 457.233 86.036 L 457.423 97.781 L 514.439 97.781"/>
    <text style="fill: rgb(255, 255, 255); font-family: Arial, sans-serif; font-size: 12px; font-weight: 700; text-anchor: middle; white-space: pre;" transform="matrix(1, 0, 0, 1, 1.692566, 19.344868)"><tspan x="279.603" y="152.608">Amplitude</tspan><tspan x="279.603" dy="1em">​</tspan><tspan>(mV)</tspan></text>
    <text style="fill: rgb(255, 255, 255); font-family: Arial, sans-serif; font-size: 12px; font-weight: 700; text-anchor: middle; white-space: pre;" x="545.061" y="173.734">Threshold</text>
    <text style="fill: rgb(255, 255, 255); font-family: Arial, sans-serif; font-size: 12px; font-weight: 700; text-anchor: middle; white-space: pre;" x="542.704" y="99.063">Stimulus</text>
  </g>
  <style>
    .blink {
      animation: blinking 1s alternate-reverse;
    }
    @keyframes blinking {
      to {
        fill: lime;
      }
    }
    #myelin2 {
      animation-delay: 0.2s;
    }
    #myelin3 {
      animation-delay: 0.4s;
    }
    #myelin4 {
      animation-delay: 0.6s;
    }
    #myelin5 {
      animation-delay: 0.8s;
    }
    #axon_terminal {
      animation-delay: 1s;
    }
  </style>
  <script>
    var step = 0;
    var anim = false;
    document.querySelectorAll('#input1 > animateMotion, #input2 > animateMotion, #input3 > animateMotion, #input4 > animateMotion, #input5 > animateMotion').forEach(function(e) {
      e.onbegin = ev => e.parentElement.style.opacity = step > 0 ? 1 : 0;
      e.onend = ev => {
        e.parentElement.style.opacity = 0;
        if (!anim) return;
        if (step === 2) {
          document.querySelectorAll('#myelin1, #myelin2, #myelin3, #myelin4, #myelin5, #axon_terminal').forEach(myelin => {
            myelin.classList.remove('blink');
            myelin.clientHeight;
            myelin.classList.add('blink');
          });
        }
        anim = false;
      };
      e.endElement();
    });
    function next(event) {
      if (event.data === 'next') step++;
      else if (event.data === 'prev') step--;

      if (step === 0) {
        document.getElementById('first_time').style.opacity = 0;
        document.getElementById('second_time').style.opacity = 0;
      }
      else if (step === 1) {
        document.getElementById('first_time').style.opacity = 1;
        document.getElementById('second_time').style.opacity = 0;
        document.querySelectorAll('#input3 > animateMotion').forEach(e => e.beginElement());
        anim = true;
      }
      else if (step === 2) {
        document.getElementById('first_time').style.opacity = 0;
        document.getElementById('second_time').style.opacity = 1;
        document.querySelectorAll('#input1 > animateMotion, #input2 > animateMotion, #input3 > animateMotion, #input4 > animateMotion, #input5 > animateMotion').forEach(e => e.beginElement());
        anim = true;
      }
    }
    window.addEventListener('message', next, false);
  </script>
</svg>