<?xml version="1.0" encoding="utf-8"?>
<svg version="1.0" width="399.82101" height="214.98" viewBox="0 0 330 160" id="Layer_1" style="overflow:visible" xmlns="http://www.w3.org/2000/svg">
  <path d="M 102.226 98.368 C 105.832 96.877 103.226 92.035 103.226 92.035 C 103.226 92.035 76.893 87.035 82.226 68.035 C 87.559 49.035 87.559 49.035 87.559 49.035 C 87.559 49.035 93.892 44.367 99.226 40.701 C 104.56 37.035 102.893 35.702 98.559 37.035 C 97.892 35.701 100.892 32.368 101.226 31.702 C 101.559 31.034 107.226 18.701 95.893 35.368 C 95.893 36.368 86.226 47.368 91.893 27.702 C 91.893 27.702 99.226 -7.632 90.893 18.034 C 90.893 18.034 88.893 24.368 86.893 20.034 C 86.893 20.034 90.893 33.369 78.56 66.035 C 75.56 63.368 73.56 60.701 73.56 60.701 C 72.56 59.035 71.893 55.035 76.56 46.368 C 81.227 37.701 83.893 32.368 83.893 32.368 C 83.893 32.368 88.226 24.034 82.893 30.034 C 82.893 30.034 83.226 11.035 79.893 34.368 C 79.893 34.368 77.227 38.369 75.56 40.035 C 75.56 40.035 80.227 29.035 74.56 31.702 C 74.56 31.702 71.56 24.702 71.893 32.702 C 72.226 40.701 73.893 42.369 72.893 47.035 C 71.893 51.701 70.226 49.701 69.893 45.701 C 69.56 41.701 59.893 46.035 75.226 70.368 C 75.226 70.368 80.559 95.701 60.893 77.701 C 60.893 77.701 36.226 58.034 67.893 34.701 C 63.893 37.701 62.226 41.036 62.893 37.035 C 63.56 33.034 62.893 33.368 62.893 33.368 C 62.893 33.368 59.226 40.369 56.893 42.035 C 54.56 43.701 45.226 46.702 65.893 23.368 C 61.893 26.368 54.56 32.035 61.893 15.701 C 54.893 26.701 50.56 39.368 46.56 28.368 C 46.56 28.368 50.893 74.7 40.56 44.701 C 40.56 44.701 36.893 38.701 45.56 9.034 C 42.56 15.701 39.893 25.034 40.56 5.701 C 40.56 5.701 37.56 6.701 38.227 28.034 C 38.227 28.034 28.894 49.368 30.894 21.034 C 30.894 21.034 33.894 8.368 34.227 6.034 C 34.56 3.7 32.56 6.701 31.894 8.034 C 31.228 9.367 31.227 3.034 31.227 3.034 C 31.227 3.034 29.227 6.034 28.894 10.034 C 28.561 14.034 25.561 7.034 24.561 5.367 C 23.561 3.7 31.227 16.367 25.894 27.033 C 25.894 27.033 18.228 14.367 17.561 18.033 C 16.894 21.7 33.561 41.701 33.894 43.034 C 34.227 44.367 43.894 54.034 31.894 52.367 C 27.894 52.034 25.561 49.7 23.561 46.367 C 21.561 43.034 17.228 36.367 17.228 36.367 L 7.561 25.367 L 6.893 10.034 L 5.56 13.701 L 3.227 11.368 L 5.227 16.035 L 5.56 22.368 L 3.227 23.368 C 3.227 23.368 31.227 51.702 8.56 41.035 C 8.56 41.035 0.226 43.369 18.893 48.035 C 18.893 48.035 20.226 55.701 36.226 56.701 C 36.226 56.701 48.226 69.702 51.226 82.035 C 51.226 82.035 54.559 108.702 39.226 88.035 C 39.226 88.035 42.226 95.368 40.226 95.368 C 38.226 95.368 28.559 89.701 27.226 89.701 C 25.893 89.701 21.893 91.701 21.893 91.701 C 21.893 91.701 48.893 98.367 23.56 98.701 C 23.56 98.701 5.56 105.034 12.56 62.701 C 12.56 62.701 10.227 75.035 8.227 63.368 C 8.227 63.368 2.894 89.702 8.227 100.035 C 8.227 100.035 13.227 106.367 5.894 106.701 C 5.894 106.701 14.894 105.367 23.894 102.701 C 23.894 102.701 17.227 116.035 13.894 116.035 C 13.894 116.035 16.894 116.701 13.561 118.701 C 13.561 118.701 14.894 121.367 18.561 116.701 C 22.228 112.035 27.561 100.702 40.561 101.035 C 44.894 102.368 60.894 115.701 36.561 120.368 C 29.228 123.368 1.561 133.369 3.894 135.035 C 6.227 136.701 20.227 126.701 17.894 131.701 C 15.561 136.701 7.894 151.035 7.894 151.035 C 7.894 151.035 17.227 129.702 15.227 146.035 C 16.227 147.368 40.56 100.702 23.227 146.035 C 23.56 147.035 27.56 140.034 28.227 149.368 C 28.227 149.368 28.56 114.036 53.56 124.702 C 54.227 133.702 48.893 146.034 34.893 154.368 C 49.226 146.035 51.56 142.368 44.893 156.368 C 48.226 153.035 49.893 153.369 50.893 157.702 C 52.226 142.702 54.893 138.036 57.56 135.702 C 60.227 142.702 61.227 145.701 61.56 147.368 C 61.893 149.035 59.893 123.701 59.56 122.368 C 59.227 121.035 72.56 121.702 72.56 121.702 C 72.56 121.702 82.56 141.036 78.227 149.702 C 80.56 142.368 76.56 127.701 94.227 153.368 C 94.227 153.368 82.227 140.035 101.56 145.035 C 94.893 139.702 82.56 132.369 79.227 126.702 C 75.894 121.035 75.227 113.369 85.56 120.702 C 95.893 128.035 102.227 131.034 103.227 130.368 C 104.227 129.702 83.56 120.368 106.56 124.368 C 91.893 118.035 67.56 112.701 102.226 98.368 Z" id="path3" style="fill:#afa3cf;stroke:#000000"/>
  <path d="M 60.518 102.868 C 60.393 98.368 61.893 96.993 64.643 97.368 C 67.393 97.743 70.143 98.993 71.268 100.243 C 72.393 101.493 74.018 103.743 74.268 104.618 C 74.518 105.493 74.643 106.368 74.768 107.243 C 74.893 108.118 75.268 108.993 74.893 109.743 C 74.518 110.493 74.018 112.118 73.018 112.243 C 72.018 112.368 71.393 112.618 70.268 111.993 C 69.143 111.368 67.393 110.243 66.643 109.618 C 65.893 108.993 62.893 105.993 62.268 105.118 C 61.643 104.243 60.518 102.868 60.518 102.868 Z" id="path5" style="fill:#5b9974;stroke:#000000"/>
  <path d="M 102.893 99.618 C 105.143 95.118 104.518 93.618 104.018 92.243 C 103.518 90.868 121.643 90.243 134.018 97.243 C 134.018 97.243 145.768 101.243 135.268 108.743 C 135.268 108.743 115.768 111.618 102.893 99.618 Z" id="path7" style="fill:#f9d566;stroke:#000000"/>
  <path d="M 143.768 112.118 C 143.768 112.118 140.143 110.368 141.268 107.118 C 142.393 103.868 143.393 103.868 144.393 103.493 C 145.393 103.118 151.143 103.243 151.643 103.243 C 152.143 103.243 171.393 105.243 174.018 107.493 C 176.643 109.743 177.518 112.493 177.518 113.618 C 177.518 114.743 177.268 118.368 173.768 118.368 C 170.268 118.368 155.393 118.118 154.768 117.493 C 154.143 116.868 146.268 114.743 143.768 112.118 Z" id="path9" style="fill:#f9d566;stroke:#000000"/>
  <path d="M 189.768 121.368 C 183.143 119.243 180.268 116.743 180.518 114.118 C 180.768 111.493 181.268 110.493 182.393 109.868 C 183.518 109.243 186.268 108.493 187.018 108.243 C 187.768 107.993 209.393 104.868 211.518 105.368 C 213.643 105.868 216.268 108.368 216.518 109.868 C 216.768 111.368 219.143 114.868 213.768 117.118 C 208.393 119.368 204.393 120.868 200.768 121.118 C 197.143 121.368 189.768 121.368 189.768 121.368 Z" id="path11" style="fill:#f9d566;stroke:#000000"/>
  <path d="M 227.518 111.743 C 221.509 112.119 219.643 112.868 219.768 108.368 C 219.893 103.868 219.393 102.243 223.018 100.493 C 226.643 98.743 236.893 91.993 238.518 91.243 C 240.143 90.493 245.393 88.868 247.768 91.993 C 250.143 95.118 249.893 96.493 247.393 99.243 C 244.893 101.993 231.518 111.493 227.518 111.743 Z" id="path13" style="fill:#f9d566;stroke:#000000"/>
  <path d="M 249.393 89.118 C 246.953 84.586 246.018 82.118 248.268 78.868 C 250.518 75.618 261.393 60.118 261.768 59.618 C 262.143 59.118 266.393 57.243 270.143 60.493 C 273.893 63.743 274.643 65.993 271.143 70.743 C 267.643 75.493 259.518 88.243 256.643 89.743 C 253.768 91.243 251.143 92.368 249.393 89.118 Z" id="path15" style="fill:#f9d566;stroke:#000000"/>
  <ellipse cx="115.393" cy="97.243" rx="3.375" ry="2.125" id="ellipse17" style="fill:#e68b60;stroke:#b76328"/>
  <ellipse cx="157.268" cy="111.118" rx="3.375" ry="2.125" id="ellipse19" style="fill:#e68b60;stroke:#b76328"/>
  <ellipse cx="199.518" cy="114.118" rx="3.375" ry="2.125" id="ellipse21" style="fill:#e68b60;stroke:#b76328"/>
  <ellipse cx="258.5" cy="134.214" rx="3.375" ry="2.125" transform="matrix(0.911959, -0.410282, 0.410282, 0.911959, -56.899893, 84.14925)" id="ellipse23" style="fill:#e68b60;stroke:#b76328"/>
  <ellipse cx="283.625" cy="107.464" rx="3.375" ry="2.125" transform="matrix(0.542223, -0.840235, 0.840235, 0.542223, 14.926456, 253.793006)" id="ellipse25" style="fill:#e68b60;stroke:#b76328"/>
  <path d="M 139.643 103.368 C 141.893 103.868 143.393 103.868 143.393 103.868 L 141.268 107.118 L 137.143 106.993 L 139.643 103.368 Z" id="path27" style="fill:#afa3cf;stroke:#000000"/>
  <path d="M 177.143 111.493 L 181.268 111.243 L 180.393 115.368 L 177.268 115.368 C 177.268 115.368 177.518 111.993 177.143 111.493 Z" id="path29" style="fill:#afa3cf;stroke:#000000"/>
  <path d="M 215.643 107.868 C 215.643 107.868 219.018 105.368 219.268 104.743 C 219.518 104.118 219.643 109.743 219.768 110.118 C 219.893 110.493 217.518 110.993 217.518 110.993 L 215.643 107.868 Z" id="path31" style="fill:#afa3cf;stroke:#000000"/>
  <path d="M 245.018 89.993 L 247.768 86.118 L 250.643 90.493 L 248.643 92.368 C 248.643 92.368 246.893 90.243 245.018 89.993 Z" id="path33" style="fill:#afa3cf;stroke:#000000"/>
  <path d="M 266.56 58.535 C 266.601 58.445 266.642 58.355 266.683 58.265 C 269.958 51.014 272.577 43.493 273.893 40.201 C 275.226 36.868 275.726 29.035 275.226 28.201 C 274.726 27.367 273.226 21.701 269.393 22.868 C 265.56 24.035 266.892 22.868 265.726 24.701 C 264.56 26.534 261.727 26.701 261.56 25.034 C 261.393 23.367 262.06 22.867 264.893 22.367 C 267.726 21.867 266.226 19.867 264.226 18.034 C 262.226 16.201 256.892 16.201 260.726 13.701 C 264.56 11.201 264.726 10.867 266.226 12.034 C 267.726 13.201 263.059 14.034 267.226 16.534 C 271.393 19.034 274.392 20.534 275.726 20.701 C 277.06 20.868 278.226 21.034 278.226 19.534 C 278.226 18.034 279.893 16.534 280.893 15.701 C 281.893 14.868 282.393 11.534 282.393 11.534 C 282.393 11.534 278.893 8.368 281.893 8.701 C 284.893 9.034 286.393 9.201 284.893 11.034 C 285.226 11.534 284.727 13.034 285.06 13.534 C 285.393 14.034 290.393 13.368 290.393 13.368 C 290.393 13.368 294.893 13.035 293.393 15.868 C 293.06 16.701 291.893 17.868 289.893 16.535 C 288.06 16.868 286.226 16.202 285.726 16.368 C 285.226 16.534 278.559 19.535 279.226 34.535 C 283.726 32.035 296.894 24.201 298.56 23.535 C 300.226 22.869 308.226 13.702 308.393 12.868 C 308.56 12.034 306.727 9.535 307.06 8.868 C 307.393 8.201 310.559 6.868 311.226 6.701 C 311.893 6.534 312.727 4.701 313.56 6.868 C 314.393 9.035 314.227 9.035 313.56 9.535 C 312.893 10.035 312.394 10.368 312.56 11.368 C 312.726 12.368 312.893 13.035 313.393 12.868 C 313.893 12.701 314.226 13.701 314.226 13.701 L 307.56 19.034 C 307.56 19.034 313.727 17.867 314.56 17.034 C 315.393 16.201 317.06 15.367 317.393 16.534 C 317.726 17.701 318.06 17.368 317.393 18.201 C 316.726 19.034 315.56 19.867 313.393 20.534 C 311.226 21.201 309.726 21.867 308.393 22.034 C 307.06 22.201 304.56 23.034 304.56 23.034 C 304.56 23.034 303.227 23.367 300.56 25.534 C 297.893 27.701 296.06 28.701 294.393 29.701 C 292.726 30.701 291.56 31.034 289.893 32.201 C 288.226 33.368 285.393 34.701 285.393 34.701 C 285.393 34.701 282.892 35.535 282.226 36.368 C 281.56 37.201 280.394 38.535 280.06 39.035 C 279.726 39.535 279.06 41.201 279.06 41.201 L 278.393 44.201 L 276.226 46.701 L 275.726 49.035 C 275.726 49.035 279.892 49.535 280.726 49.535 C 281.56 49.535 282.226 49.534 283.393 48.701 C 284.56 47.868 284.393 48.367 285.393 47.201 C 286.393 46.035 287.56 44.868 288.06 43.868 C 288.56 42.868 289.726 41.701 290.726 40.868 C 291.726 40.035 293.059 38.867 293.726 38.701 C 294.393 38.535 296.726 37.868 297.226 37.368 C 297.726 36.868 298.227 37.369 298.56 36.535 C 298.893 35.701 299.894 34.035 300.06 33.202 C 300.226 32.369 300.226 32.035 300.893 32.035 C 301.56 32.035 302.06 31.702 302.393 32.535 C 302.726 33.368 303.394 33.202 303.06 34.368 C 302.726 35.534 302.393 36.201 302.393 36.201 L 302.56 36.535 C 302.56 36.535 304.06 37.034 304.56 36.201 C 305.06 35.368 305.893 34.868 305.893 34.868 L 306.893 33.535 L 307.726 32.035 L 308.56 31.368 L 310.06 31.035 C 310.06 31.035 310.56 31.035 310.893 32.202 C 311.226 33.369 311.393 33.869 311.393 34.369 C 311.393 34.869 309.393 36.369 309.393 36.369 L 308.726 37.036 C 308.726 37.036 307.226 37.368 306.726 37.702 C 306.226 38.036 304.56 38.536 304.56 38.536 L 302.226 38.702 L 300.56 39.536 L 299.893 40.036 L 299.893 41.036 C 299.893 41.036 300.56 41.87 301.06 42.036 C 301.56 42.202 304.56 42.036 304.56 42.036 L 305.226 41.869 L 304.226 43.202 L 300.893 43.869 C 300.893 43.869 300.059 44.035 299.226 44.202 C 298.393 44.369 296.226 44.702 296.226 44.702 C 296.226 44.702 294.392 45.536 293.726 46.036 C 293.06 46.536 291.726 46.203 292.893 47.036 C 294.06 47.869 293.226 48.37 296.893 48.036 C 300.56 47.702 298.227 47.369 301.56 48.369 C 304.893 49.369 305.56 49.036 307.56 50.036 C 309.56 51.036 306.226 50.368 311.893 52.202 C 317.56 54.036 317.392 53.868 321.226 55.202 C 325.06 56.536 324.559 54.702 325.726 57.202 C 326.893 59.702 332.393 60.035 326.893 59.702 C 321.393 59.369 322.394 59.369 319.56 58.369 C 316.726 57.369 317.06 57.202 312.893 55.702 C 308.726 54.202 306.226 52.035 310.726 57.202 C 315.226 62.369 316.226 62.869 316.893 67.369 C 317.56 71.869 317.893 81.536 321.893 81.869 C 325.893 82.202 329.394 83.202 327.06 85.202 C 324.726 87.202 320.892 85.87 319.726 84.036 C 318.56 82.202 316.06 80.536 315.56 78.036 C 315.06 75.536 315.894 73.535 315.06 73.202 C 314.226 72.869 314.226 72.87 313.393 73.536 C 312.56 74.202 313.06 72.702 311.893 75.369 C 310.726 78.036 310.392 78.536 309.726 78.869 C 309.06 79.202 305.56 79.703 305.56 78.036 C 305.56 76.369 306.06 75.868 306.893 75.702 C 307.726 75.536 306.226 77.035 308.893 74.702 C 311.56 72.369 312.727 70.536 313.06 69.536 C 313.393 68.536 315.226 64.036 307.393 58.369 C 299.56 52.702 293.727 49.203 286.56 52.536 C 288.56 55.536 292.227 57.869 292.06 63.869 C 292.06 64.536 294.892 66.869 291.726 67.869 C 291.226 68.036 288.226 68.202 289.893 63.869 C 289.893 61.702 290.394 60.37 286.06 56.536 C 286.226 60.202 285.892 63.868 286.226 65.202 C 286.56 66.536 289.394 69.703 285.56 71.036 C 283.393 70.536 281.726 69.203 284.226 65.036 C 284.226 61.202 280.227 44.703 270.06 60.036 C 267.726 59.368 266.56 58.535 266.56 58.535 Z" id="path35" style="fill:#afa3cf;stroke:#000000"/>
  <path id="path37" style="fill:#afa3cf;stroke:#000000"/>
</svg>