<svg version="1.1" viewBox="0.0 0.0 960.0 720.0" fill="none" stroke="none" stroke-linecap="square" stroke-miterlimit="10" xmlns:xlink="http://www.w3.org/1999/xlink" xmlns="http://www.w3.org/2000/svg"><clipPath id="p.0"><path d="m0 0l960.0 0l0 720.0l-960.0 0l0 -720.0z" clip-rule="nonzero"/></clipPath><g clip-path="url(#p.0)"><path fill="#000000" fill-opacity="0.0" d="m0 0l960.0 0l0 720.0l-960.0 0z" fill-rule="evenodd"/><path fill="#9fc5e8" d="m129.04987 175.77428l0 0c0 -21.873947 17.732346 -39.606293 39.606308 -39.606293l0 0c10.504242 0 20.578262 4.1727905 28.005875 11.600418c7.4276276 7.4276123 11.600418 17.501633 11.600418 28.005875l0 0c0 21.873962 -17.732346 39.606308 -39.606293 39.606308l0 0c-21.873962 0 -39.606308 -17.732346 -39.606308 -39.606308z" fill-rule="evenodd"/><path stroke="#ffffff" stroke-width="3.0" stroke-linejoin="round" stroke-linecap="butt" d="m129.04987 175.77428l0 0c0 -21.873947 17.732346 -39.606293 39.606308 -39.606293l0 0c10.504242 0 20.578262 4.1727905 28.005875 11.600418c7.4276276 7.4276123 11.600418 17.501633 11.600418 28.005875l0 0c0 21.873962 -17.732346 39.606308 -39.606293 39.606308l0 0c-21.873962 0 -39.606308 -17.732346 -39.606308 -39.606308z" fill-rule="evenodd"/><path fill="#000000" d="m159.6883 182.69427l4.5625 -6.96875l-4.140625 -6.390625l3.15625 0l2.6875 4.296875l2.609375 -4.296875l3.125 0l-4.140625 6.484375l4.5625 6.875l-3.25 0l-2.96875 -4.625l-2.96875 4.625l-3.234375 0z" fill-rule="nonzero"/><path fill="#000000" d="m174.91312 176.30365q0.265625 -0.25 0.265625 -0.84375l1.375 0l0 7.234375l-1.828125 0l0 -4.96875l-1.1875 0l0 -1.234375l0.765625 0q0.4375 0 0.609375 -0.1875z" fill-rule="nonzero"/><path fill="#ffd966" d="m255.42783 150.26797l0 0c0 -7.291458 5.9108887 -13.202362 13.202362 -13.202362l52.80786 0l0 0c3.5014954 0 6.859558 1.3909607 9.33548 3.8668823c2.4759216 2.4759216 3.8668823 5.8339996 3.8668823 9.33548l0 52.807877c0 7.291458 -5.9108887 13.202362 -13.202362 13.202362l-52.80786 0c-7.2914734 0 -13.202362 -5.910904 -13.202362 -13.202362z" fill-rule="evenodd"/><path stroke="#ffffff" stroke-width="3.0" stroke-linejoin="round" stroke-linecap="butt" d="m255.42783 150.26797l0 0c0 -7.291458 5.9108887 -13.202362 13.202362 -13.202362l52.80786 0l0 0c3.5014954 0 6.859558 1.3909607 9.33548 3.8668823c2.4759216 2.4759216 3.8668823 5.8339996 3.8668823 9.33548l0 52.807877c0 7.291458 -5.9108887 13.202362 -13.202362 13.202362l-52.80786 0c-7.2914734 0 -13.202362 -5.910904 -13.202362 -13.202362z" fill-rule="evenodd"/><path fill="#000000" d="m296.95245 183.59192l-2.78125 0l-0.296875 -9.765625l-4.875 9.765625l-2.828125 0l-0.5 -13.359375l2.6875 0l0.109375 9.34375l4.59375 -9.34375l2.96875 0l0.3125 9.25l4.40625 -9.25l2.65625 0l-6.453125 13.359375z" fill-rule="nonzero"/><path fill="#000000" d="m303.8736 177.2013q0.265625 -0.25 0.265625 -0.84375l1.375 0l0 7.234375l-1.828125 0l0 -4.96875l-1.1875 0l0 -1.234375l0.765625 0q0.4375 0 0.609375 -0.1875z" fill-rule="nonzero"/><path fill="#9fc5e8" d="m129.04987 298.57306l0 0c0 -21.873962 17.732346 -39.606293 39.606308 -39.606293l0 0c10.504242 0 20.578262 4.1727905 28.005875 11.600403c7.4276276 7.4276123 11.600418 17.501648 11.600418 28.00589l0 0c0 21.873962 -17.732346 39.606293 -39.606293 39.606293l0 0c-21.873962 0 -39.606308 -17.73233 -39.606308 -39.606293z" fill-rule="evenodd"/><path stroke="#ffffff" stroke-width="3.0" stroke-linejoin="round" stroke-linecap="butt" d="m129.04987 298.57306l0 0c0 -21.873962 17.732346 -39.606293 39.606308 -39.606293l0 0c10.504242 0 20.578262 4.1727905 28.005875 11.600403c7.4276276 7.4276123 11.600418 17.501648 11.600418 28.00589l0 0c0 21.873962 -17.732346 39.606293 -39.606293 39.606293l0 0c-21.873962 0 -39.606308 -17.73233 -39.606308 -39.606293z" fill-rule="evenodd"/><path fill="#000000" d="m159.6883 305.49304l4.5625 -6.96875l-4.140625 -6.390625l3.15625 0l2.6875 4.296875l2.609375 -4.296875l3.125 0l-4.140625 6.484375l4.5625 6.875l-3.25 0l-2.96875 -4.625l-2.96875 4.625l-3.234375 0z" fill-rule="nonzero"/><path fill="#000000" d="m172.89749 301.18054q0.21875 -1.8125 0.828125 -2.453125q0.578125 -0.546875 1.546875 -0.546875q0.953125 0 1.578125 0.53125q0.671875 0.5625 0.671875 1.5625q0 0.796875 -0.75 1.796875q-0.53125 0.6875 -1.0625 1.28125q-0.296875 0.375 -0.65625 0.734375q-0.265625 0.328125 -0.484375 0.125l3.171875 -0.3125l0 1.671875l-4.796875 0l0 -1.109375q0.109375 -0.5 0.6875 -1.25q0.96875 -1.03125 1.5625 -1.796875q0.5 -0.484375 0.5 -1.140625q0 -0.21875 -0.109375 -0.3125q-0.09375 -0.109375 -0.234375 -0.109375q-0.140625 0 -0.265625 0.109375q-0.375 0.375 -0.25 1.21875l-1.9375 0z" fill-rule="nonzero"/><path fill="#ffd966" d="m255.42783 273.06674l0 0c0 -7.291443 5.9108887 -13.202362 13.202362 -13.202362l52.80786 0l0 0c3.5014954 0 6.859558 1.3909607 9.33548 3.8668823c2.4759216 2.4759216 3.8668823 5.834015 3.8668823 9.33548l0 52.80789c0 7.291443 -5.9108887 13.202362 -13.202362 13.202362l-52.80786 0c-7.2914734 0 -13.202362 -5.910919 -13.202362 -13.202362z" fill-rule="evenodd"/><path stroke="#ffffff" stroke-width="3.0" stroke-linejoin="round" stroke-linecap="butt" d="m255.42783 273.06674l0 0c0 -7.291443 5.9108887 -13.202362 13.202362 -13.202362l52.80786 0l0 0c3.5014954 0 6.859558 1.3909607 9.33548 3.8668823c2.4759216 2.4759216 3.8668823 5.834015 3.8668823 9.33548l0 52.80789c0 7.291443 -5.9108887 13.202362 -13.202362 13.202362l-52.80786 0c-7.2914734 0 -13.202362 -5.910919 -13.202362 -13.202362z" fill-rule="evenodd"/><path fill="#000000" d="m296.95245 306.3907l-2.78125 0l-0.296875 -9.765625l-4.875 9.765625l-2.828125 0l-0.5 -13.359375l2.6875 0l0.109375 9.34375l4.59375 -9.34375l2.96875 0l0.3125 9.25l4.40625 -9.25l2.65625 0l-6.453125 13.359375z" fill-rule="nonzero"/><path fill="#000000" d="m301.85797 302.0782q0.21875 -1.8125 0.828125 -2.453125q0.578125 -0.546875 1.546875 -0.546875q0.953125 0 1.578125 0.53125q0.671875 0.5625 0.671875 1.5625q0 0.796875 -0.75 1.796875q-0.53125 0.6875 -1.0625 1.28125q-0.296875 0.375 -0.65625 0.734375q-0.265625 0.328125 -0.484375 0.125l3.171875 -0.3125l0 1.671875l-4.796875 0l0 -1.109375q0.109375 -0.5 0.6875 -1.25q0.96875 -1.03125 1.5625 -1.796875q0.5 -0.484375 0.5 -1.140625q0 -0.21875 -0.109375 -0.3125q-0.09375 -0.109375 -0.234375 -0.109375q-0.140625 0 -0.265625 0.109375q-0.375 0.375 -0.25 1.21875l-1.9375 0z" fill-rule="nonzero"/><path fill="#9fc5e8" d="m129.04987 421.37183l0 0c0 -21.873962 17.732346 -39.606293 39.606308 -39.606293l0 0c10.504242 0 20.578262 4.1727905 28.005875 11.600403c7.4276276 7.427643 11.600418 17.501648 11.600418 28.00589l0 0c0 21.873962 -17.732346 39.606293 -39.606293 39.606293l0 0c-21.873962 0 -39.606308 -17.73233 -39.606308 -39.606293z" fill-rule="evenodd"/><path stroke="#ffffff" stroke-width="3.0" stroke-linejoin="round" stroke-linecap="butt" d="m129.04987 421.37183l0 0c0 -21.873962 17.732346 -39.606293 39.606308 -39.606293l0 0c10.504242 0 20.578262 4.1727905 28.005875 11.600403c7.4276276 7.427643 11.600418 17.501648 11.600418 28.00589l0 0c0 21.873962 -17.732346 39.606293 -39.606293 39.606293l0 0c-21.873962 0 -39.606308 -17.73233 -39.606308 -39.606293z" fill-rule="evenodd"/><path fill="#000000" d="m159.6883 428.29184l4.5625 -6.96875l-4.140625 -6.390625l3.15625 0l2.6875 4.296875l2.609375 -4.296875l3.125 0l-4.140625 6.484375l4.5625 6.875l-3.25 0l-2.96875 -4.625l-2.96875 4.625l-3.234375 0z" fill-rule="nonzero"/><path fill="#000000" d="m172.91312 423.61996q0.125 -1.453125 0.734375 -2.09375q0.578125 -0.546875 1.546875 -0.546875q1.046875 0 1.625 0.546875q0.546875 0.578125 0.546875 1.46875q0 0.90625 -0.484375 1.40625q-0.390625 0.375 -0.578125 0.078125q0.265625 -0.28125 0.65625 0.09375q0.5625 0.578125 0.5625 1.46875q0 1.0625 -0.640625 1.6875q-0.625 0.640625 -1.765625 0.640625q-1.0625 0 -1.6875 -0.640625q-0.625 -0.640625 -0.625 -1.53125l0 -0.765625l1.8125 0l0 0.6875q0 0.28125 0.1875 0.453125q0.109375 0.125 0.3125 0.125q0.28125 0 0.390625 -0.109375q0.1875 -0.1875 0.1875 -0.625q0 -0.359375 -0.1875 -0.53125q-0.09375 -0.109375 -0.390625 -0.109375l-0.6875 0l0 -1.671875l0.625 0q0.28125 0 0.3125 -0.046875q0.1875 -0.171875 0.1875 -0.609375q0 -0.203125 -0.1875 -0.375q-0.03125 -0.046875 -0.171875 -0.046875q-0.125 0 -0.15625 0.03125q-0.265625 0.265625 -0.265625 1.015625l-1.859375 0z" fill-rule="nonzero"/><path fill="#ffd966" d="m255.42783 395.86554l0 0c0 -7.2914734 5.9108887 -13.202362 13.202362 -13.202362l52.80786 0l0 0c3.5014954 0 6.859558 1.3909607 9.33548 3.8668823c2.4759216 2.4759216 3.8668823 5.8339844 3.8668823 9.33548l0 52.80786c0 7.2914734 -5.9108887 13.202362 -13.202362 13.202362l-52.80786 0c-7.2914734 0 -13.202362 -5.9108887 -13.202362 -13.202362z" fill-rule="evenodd"/><path stroke="#ffffff" stroke-width="3.0" stroke-linejoin="round" stroke-linecap="butt" d="m255.42783 395.86554l0 0c0 -7.2914734 5.9108887 -13.202362 13.202362 -13.202362l52.80786 0l0 0c3.5014954 0 6.859558 1.3909607 9.33548 3.8668823c2.4759216 2.4759216 3.8668823 5.8339844 3.8668823 9.33548l0 52.80786c0 7.2914734 -5.9108887 13.202362 -13.202362 13.202362l-52.80786 0c-7.2914734 0 -13.202362 -5.9108887 -13.202362 -13.202362z" fill-rule="evenodd"/><path fill="#000000" d="m296.95245 429.18945l-2.78125 0l-0.296875 -9.765625l-4.875 9.765625l-2.828125 0l-0.5 -13.359375l2.6875 0l0.109375 9.34375l4.59375 -9.34375l2.96875 0l0.3125 9.25l4.40625 -9.25l2.65625 0l-6.453125 13.359375z" fill-rule="nonzero"/><path fill="#000000" d="m301.8736 424.51758q0.125 -1.453125 0.734375 -2.09375q0.578125 -0.546875 1.546875 -0.546875q1.046875 0 1.625 0.546875q0.546875 0.578125 0.546875 1.46875q0 0.90625 -0.484375 1.40625q-0.390625 0.375 -0.578125 0.078125q0.265625 -0.28125 0.65625 0.09375q0.5625 0.578125 0.5625 1.46875q0 1.0625 -0.640625 1.6875q-0.625 0.640625 -1.765625 0.640625q-1.0625 0 -1.6875 -0.640625q-0.625 -0.640625 -0.625 -1.53125l0 -0.765625l1.8125 0l0 0.6875q0 0.28125 0.1875 0.453125q0.109375 0.125 0.3125 0.125q0.28125 0 0.390625 -0.109375q0.1875 -0.1875 0.1875 -0.625q0 -0.359375 -0.1875 -0.53125q-0.09375 -0.109375 -0.390625 -0.109375l-0.6875 0l0 -1.671875l0.625 0q0.28125 0 0.3125 -0.046875q0.1875 -0.171875 0.1875 -0.609375q0 -0.203125 -0.1875 -0.375q-0.03125 -0.046875 -0.171875 -0.046875q-0.125 0 -0.15625 0.03125q-0.265625 0.265625 -0.265625 1.015625l-1.859375 0z" fill-rule="nonzero"/><path fill="#9fc5e8" d="m129.04987 544.1706l0 0c0 -21.873962 17.732346 -39.606293 39.606308 -39.606293l0 0c10.504242 0 20.578262 4.1727905 28.005875 11.600433c7.4276276 7.4276123 11.600418 17.501648 11.600418 28.00586l0 0c0 21.873962 -17.732346 39.606323 -39.606293 39.606323l0 0c-21.873962 0 -39.606308 -17.73236 -39.606308 -39.606323z" fill-rule="evenodd"/><path stroke="#ffffff" stroke-width="3.0" stroke-linejoin="round" stroke-linecap="butt" d="m129.04987 544.1706l0 0c0 -21.873962 17.732346 -39.606293 39.606308 -39.606293l0 0c10.504242 0 20.578262 4.1727905 28.005875 11.600433c7.4276276 7.4276123 11.600418 17.501648 11.600418 28.00586l0 0c0 21.873962 -17.732346 39.606323 -39.606293 39.606323l0 0c-21.873962 0 -39.606308 -17.73236 -39.606308 -39.606323z" fill-rule="evenodd"/><path fill="#000000" d="m159.6883 551.0906l4.5625 -6.96875l-4.140625 -6.390625l3.15625 0l2.6875 4.296875l2.609375 -4.296875l3.125 0l-4.140625 6.484375l4.5625 6.875l-3.25 0l-2.96875 -4.625l-2.96875 4.625l-3.234375 0z" fill-rule="nonzero"/><path fill="#000000" d="m175.42874 543.8562l1.640625 0l0 3.921875l0.59375 0l0 1.671875l-0.59375 0l0 1.640625l-1.8125 0l0 -1.640625l-2.453125 0l0 -1.3125l2.625 -4.28125zm-0.171875 3.5l-0.265625 0.421875l0.265625 0l0 -0.421875z" fill-rule="nonzero"/><path fill="#ffd966" d="m255.42783 518.6643l0 0c0 -7.2914734 5.9108887 -13.202362 13.202362 -13.202362l52.80786 0l0 0c3.5014954 0 6.859558 1.3909607 9.33548 3.8668823c2.4759216 2.4759216 3.8668823 5.834015 3.8668823 9.33548l0 52.80786c0 7.291443 -5.9108887 13.202393 -13.202362 13.202393l-52.80786 0c-7.2914734 0 -13.202362 -5.9109497 -13.202362 -13.202393z" fill-rule="evenodd"/><path stroke="#ffffff" stroke-width="3.0" stroke-linejoin="round" stroke-linecap="butt" d="m255.42783 518.6643l0 0c0 -7.2914734 5.9108887 -13.202362 13.202362 -13.202362l52.80786 0l0 0c3.5014954 0 6.859558 1.3909607 9.33548 3.8668823c2.4759216 2.4759216 3.8668823 5.834015 3.8668823 9.33548l0 52.80786c0 7.291443 -5.9108887 13.202393 -13.202362 13.202393l-52.80786 0c-7.2914734 0 -13.202362 -5.9109497 -13.202362 -13.202393z" fill-rule="evenodd"/><path fill="#000000" d="m296.95245 551.9882l-2.78125 0l-0.296875 -9.765625l-4.875 9.765625l-2.828125 0l-0.5 -13.359375l2.6875 0l0.109375 9.34375l4.59375 -9.34375l2.96875 0l0.3125 9.25l4.40625 -9.25l2.65625 0l-6.453125 13.359375z" fill-rule="nonzero"/><path fill="#000000" d="m304.38922 544.75385l1.640625 0l0 3.921875l0.59375 0l0 1.671875l-0.59375 0l0 1.640625l-1.8125 0l0 -1.640625l-2.453125 0l0 -1.3125l2.625 -4.28125zm-0.171875 3.5l-0.265625 0.421875l0.265625 0l0 -0.421875z" fill-rule="nonzero"/><path fill="#d5a6bd" d="m434.31235 360.42126l0 0c0 -22.12619 17.936798 -40.06299 40.06299 -40.06299l0 0c10.625366 0 20.815552 4.2209167 28.328796 11.734161c7.513275 7.513275 11.734161 17.70346 11.734161 28.328827l0 0c0 22.12616 -17.936798 40.06299 -40.062958 40.06299l0 0c-22.12619 0 -40.06299 -17.936829 -40.06299 -40.06299z" fill-rule="evenodd"/><path stroke="#ffffff" stroke-width="3.0" stroke-linejoin="round" stroke-linecap="butt" d="m434.31235 360.42126l0 0c0 -22.12619 17.936798 -40.06299 40.06299 -40.06299l0 0c10.625366 0 20.815552 4.2209167 28.328796 11.734161c7.513275 7.513275 11.734161 17.70346 11.734161 28.328827l0 0c0 22.12616 -17.936798 40.06299 -40.062958 40.06299l0 0c-22.12619 0 -40.06299 -17.936829 -40.06299 -40.06299z" fill-rule="evenodd"/><path fill="#000000" d="m456.109 339.67l33.765625 0l0.90625 11.328125l-1.265625 0q-0.234375 -3.359375 -1.140625 -5.125q-0.890625 -1.78125 -2.453125 -2.578125q-1.5625 -0.796875 -4.9375 -0.796875l-15.375 0l13.703125 17.59375l-15.59375 18.4375l17.09375 0q4.65625 0 7.109375 -1.5q2.453125 -1.5 3.6875 -6.234375l1.25 0.296875l-1.921875 13.609375l-34.828125 0l0 -1.203125l17.328125 -20.453125l-17.328125 -22.171875l0 -1.203125z" fill-rule="nonzero"/><path fill="#cc0000" d="m589.1522 360.42126l0 0c0 -22.12619 17.936829 -40.06299 40.06299 -40.06299l0 0c10.625366 0 20.815552 4.2209167 28.328796 11.734161c7.5133057 7.513275 11.734192 17.70346 11.734192 28.328827l0 0c0 22.12616 -17.936768 40.06299 -40.06299 40.06299l0 0c-22.12616 0 -40.06299 -17.936829 -40.06299 -40.06299z" fill-rule="evenodd"/><path stroke="#ffffff" stroke-width="3.0" stroke-linejoin="round" stroke-linecap="butt" d="m589.1522 360.42126l0 0c0 -22.12619 17.936829 -40.06299 40.06299 -40.06299l0 0c10.625366 0 20.815552 4.2209167 28.328796 11.734161c7.5133057 7.513275 11.734192 17.70346 11.734192 28.328827l0 0c0 22.12616 -17.936768 40.06299 -40.06299 40.06299l0 0c-22.12616 0 -40.06299 -17.936829 -40.06299 -40.06299z" fill-rule="evenodd"/><path fill="#6aa84f" d="m732.4593 360.42126l40.06305 -40.06299l40.06299 40.06299l-40.06299 40.06299z" fill-rule="evenodd"/><path stroke="#ffffff" stroke-width="3.0" stroke-linejoin="round" stroke-linecap="butt" d="m732.4593 360.42126l40.06305 -40.06299l40.06299 40.06299l-40.06299 40.06299z" fill-rule="evenodd"/><path fill="#000000" d="m770.52203 372.70126l0 -10.4375l-9.078125 -14.375l5.875 0l5.828125 9.8125l5.71875 -9.8125l5.78125 0l-9.125 14.40625l0 10.40625l-5.0 0z" fill-rule="nonzero"/><path fill="#000000" fill-opacity="0.0" d="m606.52496 377.3189c10.346436 0 15.519653 -8.448822 20.692871 -16.897644c5.173218 -8.448822 10.346497 -16.897644 20.692932 -16.897644" fill-rule="evenodd"/><path stroke="#ffffff" stroke-width="4.0" stroke-linejoin="round" stroke-linecap="butt" d="m606.52496 377.3189c10.346436 0 15.519653 -8.448822 20.692871 -16.897644c5.173218 -8.448822 10.346497 -16.897644 20.692932 -16.897644" fill-rule="evenodd"/><path fill="#000000" fill-opacity="0.0" d="m334.6404 176.67192l111.40158 155.43306" fill-rule="evenodd"/><path stroke="#ffffff" stroke-width="3.0" stroke-linejoin="round" stroke-linecap="butt" d="m334.6404 176.67192l100.91577 140.80272" fill-rule="evenodd"/><path fill="#ffffff" stroke="#ffffff" stroke-width="3.0" stroke-linecap="butt" d="m431.5286 320.36127l11.958527 8.179016l-3.9033813 -13.9522705z" fill-rule="evenodd"/><path fill="#000000" fill-opacity="0.0" d="m334.6404 299.4707l99.68506 60.944855" fill-rule="evenodd"/><path stroke="#ffffff" stroke-width="3.0" stroke-linejoin="round" stroke-linecap="butt" d="m334.6404 299.4707l84.32776 51.555817" fill-rule="evenodd"/><path fill="#ffffff" stroke="#ffffff" stroke-width="3.0" stroke-linecap="butt" d="m416.38348 355.2542l14.200165 2.8737183l-9.030762 -11.329102z" fill-rule="evenodd"/><path fill="#000000" fill-opacity="0.0" d="m334.6404 422.26947l99.68506 -61.858276" fill-rule="evenodd"/><path stroke="#ffffff" stroke-width="3.0" stroke-linejoin="round" stroke-linecap="butt" d="m334.6404 422.26947l84.39047 -52.3674" fill-rule="evenodd"/><path fill="#ffffff" stroke="#ffffff" stroke-width="3.0" stroke-linecap="butt" d="m421.64362 374.1125l8.955322 -11.388824l-14.180756 2.967987z" fill-rule="evenodd"/><path fill="#000000" fill-opacity="0.0" d="m334.6404 545.06824l111.40158 -156.31494" fill-rule="evenodd"/><path stroke="#ffffff" stroke-width="3.0" stroke-linejoin="round" stroke-linecap="butt" d="m334.6404 545.06824l100.954926 -141.65659" fill-rule="evenodd"/><path fill="#ffffff" stroke="#ffffff" stroke-width="3.0" stroke-linecap="butt" d="m439.63065 406.2875l3.8660278 -13.9627075l-11.936584 8.210999z" fill-rule="evenodd"/><path fill="#000000" fill-opacity="0.0" d="m208.24672 175.75853l47.181107 0.9133911" fill-rule="evenodd"/><path stroke="#ffffff" stroke-width="3.0" stroke-linejoin="round" stroke-linecap="butt" d="m208.24672 175.75853l29.184464 0.5649872" fill-rule="evenodd"/><path fill="#ffffff" stroke="#ffffff" stroke-width="3.0" stroke-linecap="butt" d="m237.33528 181.27779l13.707657 -4.6907654l-13.515839 -5.2177734z" fill-rule="evenodd"/><path fill="#000000" fill-opacity="0.0" d="m208.26247 298.57306l47.181107 0.9133911" fill-rule="evenodd"/><path stroke="#ffffff" stroke-width="3.0" stroke-linejoin="round" stroke-linecap="butt" d="m208.26247 298.57306l29.184464 0.5649719" fill-rule="evenodd"/><path fill="#ffffff" stroke="#ffffff" stroke-width="3.0" stroke-linecap="butt" d="m237.35103 304.09232l13.707657 -4.6907654l-13.515839 -5.2177734z" fill-rule="evenodd"/><path fill="#000000" fill-opacity="0.0" d="m208.26247 421.37183l47.181107 0.9133911" fill-rule="evenodd"/><path stroke="#ffffff" stroke-width="3.0" stroke-linejoin="round" stroke-linecap="butt" d="m208.26247 421.37186l29.184464 0.5649719" fill-rule="evenodd"/><path fill="#ffffff" stroke="#ffffff" stroke-width="3.0" stroke-linecap="butt" d="m237.35103 426.89108l13.707657 -4.690735l-13.515839 -5.2177734z" fill-rule="evenodd"/><path fill="#000000" fill-opacity="0.0" d="m208.26247 544.1706l47.181107 0.9133911" fill-rule="evenodd"/><path stroke="#ffffff" stroke-width="3.0" stroke-linejoin="round" stroke-linecap="butt" d="m208.26247 544.1706l29.184464 0.56500244" fill-rule="evenodd"/><path fill="#ffffff" stroke="#ffffff" stroke-width="3.0" stroke-linecap="butt" d="m237.35103 549.6899l13.707657 -4.690796l-13.515839 -5.2177734z" fill-rule="evenodd"/><path fill="#000000" fill-opacity="0.0" d="m514.4383 360.42126l74.70868 0" fill-rule="evenodd"/><path stroke="#ffffff" stroke-width="3.0" stroke-linejoin="round" stroke-linecap="butt" d="m514.4383 360.42126l56.70868 0" fill-rule="evenodd"/><path fill="#ffffff" stroke="#ffffff" stroke-width="3.0" stroke-linecap="butt" d="m571.147 365.37646l13.614319 -4.9552l-13.614319 -4.9552z" fill-rule="evenodd"/><path fill="#000000" fill-opacity="0.0" d="m669.2782 360.42126l63.18109 0" fill-rule="evenodd"/><path stroke="#ffffff" stroke-width="3.0" stroke-linejoin="round" stroke-linecap="butt" d="m669.2782 360.42126l45.18109 0" fill-rule="evenodd"/><path fill="#ffffff" stroke="#ffffff" stroke-width="3.0" stroke-linecap="butt" d="m714.4593 365.37646l13.614319 -4.9552l-13.614319 -4.9552z" fill-rule="evenodd"/><path fill="#000000" fill-opacity="0.0" d="m128.59317 88.11024l80.12599 0l0 42.015755l-80.12599 0z" fill-rule="evenodd"/><path fill="#ffffff" d="m141.9576 115.030235l0 -13.359375l2.6875 0l0 13.359375l-2.6875 0zm14.042679 0l-2.5625 0l0 -4.9375q0 -1.5625 -0.171875 -2.015625q-0.15625 -0.46875 -0.53125 -0.71875q-0.359375 -0.265625 -0.875 -0.265625q-0.671875 0 -1.203125 0.375q-0.53125 0.359375 -0.734375 0.96875q-0.1875 0.59375 -0.1875 2.21875l0 4.375l-2.546875 0l0 -9.671875l2.375 0l0 1.421875q1.265625 -1.640625 3.1875 -1.640625q0.84375 0 1.546875 0.3125q0.703125 0.296875 1.0625 0.78125q0.359375 0.46875 0.5 1.078125q0.140625 0.59375 0.140625 1.703125l0 6.015625zm2.5209808 -9.671875l2.390625 0l0 1.421875q0.46875 -0.734375 1.25 -1.1875q0.796875 -0.453125 1.765625 -0.453125q1.6875 0 2.859375 1.328125q1.171875 1.3125 1.171875 3.671875q0 2.421875 -1.1875 3.765625q-1.1875 1.34375 -2.859375 1.34375q-0.8125 0 -1.46875 -0.3125q-0.640625 -0.328125 -1.359375 -1.09375l0 4.875l-2.5625 0l0 -13.359375zm2.53125 4.671875q0 1.625 0.640625 2.40625q0.65625 0.78125 1.578125 0.78125q0.90625 0 1.484375 -0.71875q0.59375 -0.71875 0.59375 -2.34375q0 -1.515625 -0.609375 -2.25q-0.609375 -0.75 -1.515625 -0.75q-0.9375 0 -1.5625 0.734375q-0.609375 0.71875 -0.609375 2.140625zm15.302231 5.0l0 -1.453125q-0.53125 0.78125 -1.390625 1.234375q-0.859375 0.4375 -1.8125 0.4375q-0.96875 0 -1.75 -0.421875q-0.765625 -0.4375 -1.125 -1.203125q-0.34375 -0.78125 -0.34375 -2.140625l0 -6.125l2.5625 0l0 4.4375q0 2.046875 0.140625 2.515625q0.140625 0.453125 0.515625 0.71875q0.375 0.265625 0.953125 0.265625q0.65625 0 1.171875 -0.359375q0.515625 -0.359375 0.703125 -0.890625q0.203125 -0.53125 0.203125 -2.609375l0 -4.078125l2.546875 0l0 9.671875l-2.375 0zm9.474106 -9.671875l0 2.03125l-1.75 0l0 3.90625q0 1.1875 0.046875 1.390625q0.046875 0.1875 0.21875 0.3125q0.1875 0.125 0.4375 0.125q0.359375 0 1.03125 -0.25l0.21875 2.0q-0.890625 0.375 -2.015625 0.375q-0.703125 0 -1.265625 -0.234375q-0.546875 -0.234375 -0.8125 -0.59375q-0.25 -0.375 -0.34375 -1.0q-0.09375 -0.453125 -0.09375 -1.8125l0 -4.21875l-1.171875 0l0 -2.03125l1.171875 0l0 -1.921875l2.578125 -1.5l0 3.421875l1.75 0zm0.868927 6.90625l2.5625 -0.390625q0.171875 0.75 0.671875 1.140625q0.5 0.390625 1.40625 0.390625q0.984375 0 1.484375 -0.375q0.34375 -0.25 0.34375 -0.671875q0 -0.296875 -0.1875 -0.484375q-0.1875 -0.1875 -0.859375 -0.34375q-3.09375 -0.6875 -3.921875 -1.25q-1.140625 -0.78125 -1.140625 -2.171875q0 -1.265625 0.984375 -2.109375q1.0 -0.859375 3.078125 -0.859375q1.984375 0 2.953125 0.65625q0.96875 0.640625 1.328125 1.90625l-2.40625 0.4375q-0.15625 -0.5625 -0.59375 -0.859375q-0.421875 -0.296875 -1.234375 -0.296875q-1.0 0 -1.4375 0.28125q-0.296875 0.203125 -0.296875 0.515625q0 0.265625 0.25 0.46875q0.34375 0.25 2.390625 0.71875q2.046875 0.453125 2.859375 1.140625q0.796875 0.671875 0.796875 1.890625q0 1.34375 -1.109375 2.296875q-1.109375 0.953125 -3.28125 0.953125q-1.984375 0 -3.140625 -0.796875q-1.140625 -0.8125 -1.5 -2.1875z" fill-rule="nonzero"/><path fill="#000000" fill-opacity="0.0" d="m241.19423 88.11024l107.68504 0l0 42.015755l-107.68504 0z" fill-rule="evenodd"/><path fill="#ffffff" d="m262.18134 115.030235l-3.1875 -13.359375l2.765625 0l2.015625 9.171875l2.4375 -9.171875l3.203125 0l2.34375 9.328125l2.046875 -9.328125l2.71875 0l-3.25 13.359375l-2.859375 0l-2.65625 -9.984375l-2.65625 9.984375l-2.921875 0zm20.958923 -3.078125l2.546875 0.421875q-0.484375 1.40625 -1.546875 2.140625q-1.0625 0.734375 -2.65625 0.734375q-2.515625 0 -3.734375 -1.65625q-0.953125 -1.3125 -0.953125 -3.328125q0 -2.40625 1.25 -3.765625q1.265625 -1.359375 3.1875 -1.359375q2.15625 0 3.40625 1.421875q1.25 1.421875 1.1875 4.375l-6.40625 0q0.03125 1.140625 0.609375 1.78125q0.59375 0.625 1.484375 0.625q0.59375 0 1.0 -0.328125q0.421875 -0.328125 0.625 -1.0625zm0.15625 -2.59375q-0.03125 -1.109375 -0.578125 -1.6875q-0.546875 -0.578125 -1.328125 -0.578125q-0.84375 0 -1.390625 0.609375q-0.546875 0.609375 -0.53125 1.65625l3.828125 0zm4.6257324 -5.3125l0 -2.375l2.5625 0l0 2.375l-2.5625 0zm0 10.984375l0 -9.671875l2.5625 0l0 9.671875l-2.5625 0zm4.9489136 0.640625l2.921875 0.359375q0.0625 0.5 0.328125 0.6875q0.375 0.28125 1.15625 0.28125q1.0 0 1.5 -0.296875q0.328125 -0.203125 0.515625 -0.65625q0.109375 -0.3125 0.109375 -1.171875l0 -1.40625q-1.140625 1.5625 -2.890625 1.5625q-1.953125 0 -3.09375 -1.65625q-0.890625 -1.296875 -0.890625 -3.234375q0 -2.4375 1.171875 -3.71875q1.171875 -1.28125 2.90625 -1.28125q1.796875 0 2.96875 1.578125l0 -1.359375l2.390625 0l0 8.671875q0 1.71875 -0.28125 2.5625q-0.28125 0.84375 -0.796875 1.328125q-0.5 0.484375 -1.359375 0.75q-0.84375 0.28125 -2.15625 0.28125q-2.453125 0 -3.484375 -0.84375q-1.03125 -0.84375 -1.03125 -2.125q0 -0.140625 0.015625 -0.3125zm2.28125 -5.671875q0 1.53125 0.59375 2.25q0.59375 0.71875 1.46875 0.71875q0.9375 0 1.578125 -0.734375q0.65625 -0.734375 0.65625 -2.171875q0 -1.515625 -0.625 -2.234375q-0.609375 -0.734375 -1.5625 -0.734375q-0.921875 0 -1.515625 0.71875q-0.59375 0.71875 -0.59375 2.1875zm11.895996 -8.328125l0 4.921875q1.234375 -1.453125 2.953125 -1.453125q0.890625 0 1.59375 0.328125q0.71875 0.328125 1.078125 0.84375q0.359375 0.5 0.484375 1.125q0.140625 0.609375 0.140625 1.921875l0 5.671875l-2.5625 0l0 -5.109375q0 -1.515625 -0.15625 -1.921875q-0.140625 -0.421875 -0.515625 -0.65625q-0.359375 -0.25 -0.90625 -0.25q-0.640625 0 -1.140625 0.3125q-0.5 0.3125 -0.734375 0.9375q-0.234375 0.625 -0.234375 1.84375l0 4.84375l-2.5625 0l0 -13.359375l2.5625 0zm13.286591 3.6875l0 2.03125l-1.75 0l0 3.90625q0 1.1875 0.046875 1.390625q0.046875 0.1875 0.21875 0.3125q0.1875 0.125 0.4375 0.125q0.359375 0 1.03125 -0.25l0.21875 2.0q-0.890625 0.375 -2.015625 0.375q-0.703125 0 -1.265625 -0.234375q-0.546875 -0.234375 -0.8125 -0.59375q-0.25 -0.375 -0.34375 -1.0q-0.09375 -0.453125 -0.09375 -1.8125l0 -4.21875l-1.171875 0l0 -2.03125l1.171875 0l0 -1.921875l2.578125 -1.5l0 3.421875l1.75 0zm0.868927 6.90625l2.5625 -0.390625q0.171875 0.75 0.671875 1.140625q0.5 0.390625 1.40625 0.390625q0.984375 0 1.484375 -0.375q0.34375 -0.25 0.34375 -0.671875q0 -0.296875 -0.1875 -0.484375q-0.1875 -0.1875 -0.859375 -0.34375q-3.09375 -0.6875 -3.921875 -1.25q-1.140625 -0.78125 -1.140625 -2.171875q0 -1.265625 0.984375 -2.109375q1.0 -0.859375 3.078125 -0.859375q1.984375 0 2.953125 0.65625q0.96875 0.640625 1.328125 1.90625l-2.40625 0.4375q-0.15625 -0.5625 -0.59375 -0.859375q-0.421875 -0.296875 -1.234375 -0.296875q-1.0 0 -1.4375 0.28125q-0.296875 0.203125 -0.296875 0.515625q0 0.265625 0.25 0.46875q0.34375 0.25 2.390625 0.71875q2.046875 0.453125 2.859375 1.140625q0.796875 0.671875 0.796875 1.890625q0 1.34375 -1.109375 2.296875q-1.109375 0.953125 -3.28125 0.953125q-1.984375 0 -3.140625 -0.796875q-1.140625 -0.8125 -1.5 -2.1875z" fill-rule="nonzero"/><path fill="#000000" fill-opacity="0.0" d="m420.5328 229.11548l107.68503 0l0 64.62991l-107.68503 0z" fill-rule="evenodd"/><path fill="#ffffff" d="m435.82193 256.0355l-3.1875 -13.35939l2.765625 0l2.015625 9.171875l2.4375 -9.171875l3.203125 0l2.34375 9.328125l2.046875 -9.328125l2.71875 0l-3.25 13.35939l-2.859375 0l-2.65625 -9.98439l-2.65625 9.98439l-2.921875 0zm20.958923 -3.0781403l2.546875 0.421875q-0.484375 1.40625 -1.546875 2.140625q-1.0625 0.73439026 -2.65625 0.73439026q-2.515625 0 -3.734375 -1.6562653q-0.953125 -1.3125 -0.953125 -3.328125q0 -2.40625 1.25 -3.765625q1.265625 -1.359375 3.1875 -1.359375q2.15625 0 3.40625 1.421875q1.25 1.421875 1.1875 4.375l-6.40625 0q0.03125 1.140625 0.609375 1.78125q0.59375 0.625 1.484375 0.625q0.59375 0 1.0 -0.328125q0.421875 -0.328125 0.625 -1.0625zm0.15625 -2.59375q-0.03125 -1.109375 -0.578125 -1.6875q-0.546875 -0.578125 -1.328125 -0.578125q-0.84375 0 -1.390625 0.609375q-0.546875 0.609375 -0.53125 1.65625l3.828125 0zm4.6257324 -5.3125l0 -2.375l2.5625 0l0 2.375l-2.5625 0zm0 10.98439l0 -9.67189l2.5625 0l0 9.67189l-2.5625 0zm4.9489136 0.640625l2.921875 0.359375q0.0625 0.5 0.328125 0.6875q0.375 0.28125 1.15625 0.28125q1.0 0 1.5 -0.296875q0.328125 -0.203125 0.515625 -0.65625q0.109375 -0.3125 0.109375 -1.1718903l0 -1.40625q-1.140625 1.5625153 -2.890625 1.5625153q-1.953125 0 -3.09375 -1.6562653q-0.890625 -1.296875 -0.890625 -3.234375q0 -2.4375 1.171875 -3.71875q1.171875 -1.28125 2.90625 -1.28125q1.796875 0 2.96875 1.578125l0 -1.359375l2.390625 0l0 8.671875q0 1.7187653 -0.28125 2.5625153q-0.28125 0.84375 -0.796875 1.328125q-0.5 0.484375 -1.359375 0.75q-0.84375 0.28125 -2.15625 0.28125q-2.453125 0 -3.484375 -0.84375q-1.03125 -0.84375 -1.03125 -2.125q0 -0.140625 0.015625 -0.3125zm2.28125 -5.6718903q0 1.53125 0.59375 2.25q0.59375 0.71875 1.46875 0.71875q0.9375 0 1.578125 -0.734375q0.65625 -0.734375 0.65625 -2.171875q0 -1.515625 -0.625 -2.234375q-0.609375 -0.734375 -1.5625 -0.734375q-0.921875 0 -1.515625 0.71875q-0.59375 0.71875 -0.59375 2.1875zm11.895996 -8.328125l0 4.921875q1.234375 -1.453125 2.953125 -1.453125q0.890625 0 1.59375 0.328125q0.71875 0.328125 1.078125 0.84375q0.359375 0.5 0.484375 1.125q0.140625 0.609375 0.140625 1.921875l0 5.6718903l-2.5625 0l0 -5.1093903q0 -1.515625 -0.15625 -1.921875q-0.140625 -0.421875 -0.515625 -0.65625q-0.359375 -0.25 -0.90625 -0.25q-0.640625 0 -1.140625 0.3125q-0.5 0.3125 -0.734375 0.9375q-0.234375 0.625 -0.234375 1.84375l0 4.8437653l-2.5625 0l0 -13.35939l2.5625 0zm13.286591 3.6875l0 2.03125l-1.75 0l0 3.90625q0 1.1875 0.046875 1.390625q0.046875 0.1875 0.21875 0.3125q0.1875 0.125 0.4375 0.125q0.359375 0 1.03125 -0.25l0.21875 2.0q-0.890625 0.37501526 -2.015625 0.37501526q-0.703125 0 -1.265625 -0.234375q-0.546875 -0.23439026 -0.8125 -0.59376526q-0.25 -0.375 -0.34375 -1.0q-0.09375 -0.453125 -0.09375 -1.8125l0 -4.21875l-1.171875 0l0 -2.03125l1.171875 0l0 -1.921875l2.578125 -1.5l0 3.421875l1.75 0zm7.368927 6.59375l2.546875 0.421875q-0.484375 1.40625 -1.546875 2.140625q-1.0625 0.73439026 -2.65625 0.73439026q-2.515625 0 -3.734375 -1.6562653q-0.953125 -1.3125 -0.953125 -3.328125q0 -2.40625 1.25 -3.765625q1.265625 -1.359375 3.1875 -1.359375q2.15625 0 3.40625 1.421875q1.25 1.421875 1.1875 4.375l-6.40625 0q0.03125 1.140625 0.609375 1.78125q0.59375 0.625 1.484375 0.625q0.59375 0 1.0 -0.328125q0.421875 -0.328125 0.625 -1.0625zm0.15625 -2.59375q-0.03125 -1.109375 -0.578125 -1.6875q-0.546875 -0.578125 -1.328125 -0.578125q-0.84375 0 -1.390625 0.609375q-0.546875 0.609375 -0.53125 1.65625l3.828125 0zm13.500702 5.6718903l-2.390625 0l0 -1.4218903q-0.59375 0.828125 -1.4062195 1.234375q-0.796875 0.40626526 -1.609375 0.40626526q-1.671875 0 -2.859375 -1.3437653q-1.1875 -1.34375 -1.1875 -3.75q0 -2.453125 1.15625 -3.734375q1.15625 -1.28125 2.921875 -1.28125q1.625 0 2.8124695 1.34375l0 -4.8125l2.5625 0l0 13.35939zm-6.8437195 -5.0468903q0 1.546875 0.4375 2.234375q0.609375 1.015625 1.71875 1.015625q0.890625 0 1.5 -0.75q0.6249695 -0.765625 0.6249695 -2.25q0 -1.671875 -0.6093445 -2.40625q-0.59375 -0.734375 -1.53125 -0.734375q-0.90625 0 -1.53125 0.734375q-0.609375 0.71875 -0.609375 2.15625z" fill-rule="nonzero"/><path fill="#ffffff" d="m454.83322 274.09174l2.625 -0.25q0.234375 1.3125 0.953125 1.9375q0.734375 0.609375 1.96875 0.609375q1.296875 0 1.953125 -0.546875q0.671875 -0.546875 0.671875 -1.28125q0 -0.484375 -0.28125 -0.8125q-0.28125 -0.328125 -0.96875 -0.578125q-0.484375 -0.15625 -2.171875 -0.578125q-2.15625 -0.546875 -3.03125 -1.328125q-1.234375 -1.09375 -1.234375 -2.6875q0 -1.015625 0.578125 -1.90625q0.578125 -0.890625 1.65625 -1.34375q1.09375 -0.46875 2.640625 -0.46875q2.515625 0 3.78125 1.109375q1.28125 1.09375 1.34375 2.9375l-2.703125 0.109375q-0.171875 -1.03125 -0.75 -1.46875q-0.5625 -0.453125 -1.703125 -0.453125q-1.171875 0 -1.84375 0.46875q-0.421875 0.3125 -0.421875 0.84375q0 0.46875 0.40625 0.796875q0.5 0.4375 2.46875 0.90625q1.96875 0.453125 2.90625 0.953125q0.953125 0.5 1.484375 1.359375q0.53125 0.859375 0.53125 2.125q0 1.15625 -0.640625 2.15625q-0.640625 1.0 -1.8125 1.484375q-1.15625 0.484375 -2.890625 0.484375q-2.53125 0 -3.890625 -1.171875q-1.359375 -1.171875 -1.625 -3.40625zm19.474823 4.34375l0 -1.453125q-0.53125 0.78125 -1.390625 1.234375q-0.859375 0.4375 -1.8125 0.4375q-0.96875 0 -1.75 -0.421875q-0.765625 -0.4375 -1.125 -1.203125q-0.34375 -0.78125 -0.34375 -2.140625l0 -6.125l2.5625 0l0 4.4375q0 2.046875 0.140625 2.515625q0.140625 0.453125 0.515625 0.71875q0.375 0.265625 0.953125 0.265625q0.65625 0 1.171875 -0.359375q0.515625 -0.359375 0.703125 -0.890625q0.203125 -0.53125 0.203125 -2.609375l0 -4.078125l2.546875 0l0 9.671875l-2.375 0zm4.833496 -9.671875l2.359375 0l0 1.3125q1.265625 -1.53125 3.015625 -1.53125q0.9375 0 1.609375 0.390625q0.6875 0.375 1.125 1.140625q0.640625 -0.765625 1.375 -1.140625q0.75 -0.390625 1.578125 -0.390625q1.0625 0 1.796875 0.4375q0.75 0.421875 1.109375 1.265625q0.265625 0.625 0.265625 2.0l0 6.1875l-2.5625 0l0 -5.53125q0 -1.4375 -0.265625 -1.859375q-0.34375 -0.546875 -1.09375 -0.546875q-0.53125 0 -1.015625 0.328125q-0.46875 0.328125 -0.671875 0.96875q-0.203125 0.625 -0.203125 2.0l0 4.640625l-2.5625 0l0 -5.296875q0 -1.421875 -0.140625 -1.828125q-0.140625 -0.40625 -0.421875 -0.609375q-0.28125 -0.203125 -0.78125 -0.203125q-0.59375 0 -1.0625 0.328125q-0.46875 0.3125 -0.6875 0.921875q-0.203125 0.59375 -0.203125 1.984375l0 4.703125l-2.5625 0l0 -9.671875z" fill-rule="nonzero"/><path fill="#000000" fill-opacity="0.0" d="m555.9974 229.11548l146.42517 0l0 64.62991l-146.42517 0z" fill-rule="evenodd"/><path fill="#ffffff" d="m597.52423 256.0355l-2.9375 0l-1.171875 -3.0312653l-5.328125 0l-1.109375 3.0312653l-2.859375 0l5.203125 -13.35939l2.84375 0l5.359375 13.35939zm-4.96875 -5.2812653l-1.84375 -4.953125l-1.796875 4.953125l3.640625 0zm14.81665 -1.53125l-2.53125 0.453125q-0.125 -0.75 -0.578125 -1.125q-0.453125 -0.390625 -1.171875 -0.390625q-0.953125 0 -1.53125 0.65625q-0.5625 0.65625 -0.5625 2.203125q0 1.734375 0.578125 2.4375q0.578125 0.703125 1.546875 0.703125q0.734375 0 1.203125 -0.40625q0.46875 -0.421875 0.65625 -1.421875l2.515625 0.421875q-0.390625 1.734375 -1.515625 2.625q-1.109375 0.87501526 -2.96875 0.87501526q-2.125 0 -3.390625 -1.3281403q-1.25 -1.34375 -1.25 -3.71875q0 -2.390625 1.265625 -3.71875q1.265625 -1.34375 3.421875 -1.34375q1.765625 0 2.796875 0.765625q1.046875 0.75 1.515625 2.3125zm6.3757324 -2.859375l0 2.03125l-1.75 0l0 3.90625q0 1.1875 0.046875 1.390625q0.046875 0.1875 0.21875 0.3125q0.1875 0.125 0.4375 0.125q0.359375 0 1.03125 -0.25l0.21875 2.0q-0.890625 0.37501526 -2.015625 0.37501526q-0.703125 0 -1.265625 -0.234375q-0.546875 -0.23439026 -0.8125 -0.59376526q-0.25 -0.375 -0.34375 -1.0q-0.09375 -0.453125 -0.09375 -1.8125l0 -4.21875l-1.171875 0l0 -2.03125l1.171875 0l0 -1.921875l2.578125 -1.5l0 3.421875l1.75 0zm1.7752075 -1.3125l0 -2.375l2.5625 0l0 2.375l-2.5625 0zm0 10.98439l0 -9.67189l2.5625 0l0 9.67189l-2.5625 0zm7.8395386 0l-3.90625 -9.67189l2.6875 0l1.828125 4.9375l0.53125 1.640625q0.203125 -0.625 0.265625 -0.828125q0.125 -0.40625 0.265625 -0.8125l1.84375 -4.9375l2.625 0l-3.84375 9.67189l-2.296875 0zm9.625732 -6.7187653l-2.328125 -0.421875q0.40625 -1.40625 1.359375 -2.078125q0.953125 -0.671875 2.84375 -0.671875q1.703125 0 2.546875 0.40625q0.84375 0.40625 1.171875 1.03125q0.34375 0.625 0.34375 2.28125l-0.015625 3.0q0 1.265625 0.109375 1.875q0.125 0.609375 0.46875 1.2968903l-2.53125 0q-0.109375 -0.25001526 -0.25 -0.75001526q-0.0625 -0.234375 -0.09375 -0.3125q-0.65625 0.640625 -1.40625 0.96875q-0.734375 0.31251526 -1.59375 0.31251526q-1.484375 0 -2.34375 -0.81251526q-0.859375 -0.8125 -0.859375 -2.046875q0 -0.828125 0.390625 -1.46875q0.390625 -0.640625 1.09375 -0.96875q0.703125 -0.34375 2.03125 -0.609375q1.796875 -0.328125 2.484375 -0.625l0 -0.25q0 -0.75 -0.359375 -1.0625q-0.359375 -0.3125 -1.375 -0.3125q-0.6875 0 -1.078125 0.28125q-0.375 0.265625 -0.609375 0.9375zm3.421875 2.078125q-0.484375 0.15625 -1.5625 0.390625q-1.0625 0.21875 -1.390625 0.4375q-0.5 0.359375 -0.5 0.90625q0 0.53125 0.40625 0.9375q0.40625 0.390625 1.015625 0.390625q0.703125 0 1.328125 -0.46875q0.46875 -0.34375 0.609375 -0.84375q0.09375 -0.328125 0.09375 -1.25l0 -0.5zm9.485046 -5.03125l0 2.03125l-1.75 0l0 3.90625q0 1.1875 0.046875 1.390625q0.046875 0.1875 0.21875 0.3125q0.1875 0.125 0.4375 0.125q0.359375 0 1.03125 -0.25l0.21875 2.0q-0.890625 0.37501526 -2.015625 0.37501526q-0.703125 0 -1.265625 -0.234375q-0.546875 -0.23439026 -0.8125 -0.59376526q-0.25 -0.375 -0.34375 -1.0q-0.09375 -0.453125 -0.09375 -1.8125l0 -4.21875l-1.171875 0l0 -2.03125l1.171875 0l0 -1.921875l2.578125 -1.5l0 3.421875l1.75 0zm1.7752075 -1.3125l0 -2.375l2.5625 0l0 2.375l-2.5625 0zm0 10.98439l0 -9.67189l2.5625 0l0 9.67189l-2.5625 0zm4.5895386 -4.9687653q0 -1.28125 0.625 -2.46875q0.625 -1.203125 1.78125 -1.828125q1.15625 -0.625 2.578125 -0.625q2.1875 0 3.59375 1.421875q1.40625 1.421875 1.40625 3.609375q0 2.1875 -1.421875 3.640625q-1.421875 1.4375153 -3.5625 1.4375153q-1.328125 0 -2.546875 -0.59376526q-1.203125 -0.609375 -1.828125 -1.765625q-0.625 -1.171875 -0.625 -2.828125zm2.625 0.125q0 1.453125 0.671875 2.21875q0.6875 0.75 1.6875 0.75q1.0 0 1.671875 -0.75q0.6875 -0.765625 0.6875 -2.234375q0 -1.421875 -0.6875 -2.1875q-0.671875 -0.765625 -1.671875 -0.765625q-1.0 0 -1.6875 0.765625q-0.671875 0.765625 -0.671875 2.203125zm18.161621 4.8437653l-2.5625 0l0 -4.9375153q0 -1.5625 -0.171875 -2.015625q-0.15625 -0.46875 -0.53125 -0.71875q-0.359375 -0.265625 -0.875 -0.265625q-0.671875 0 -1.203125 0.375q-0.53125 0.359375 -0.734375 0.96875q-0.1875 0.59375 -0.1875 2.21875l0 4.3750153l-2.546875 0l0 -9.67189l2.375 0l0 1.421875q1.265625 -1.640625 3.1875 -1.640625q0.84375 0 1.546875 0.3125q0.703125 0.296875 1.0625 0.78125q0.359375 0.46875 0.5 1.078125q0.140625 0.59375 0.140625 1.703125l0 6.0156403z" fill-rule="nonzero"/><path fill="#ffffff" d="m591.20917 278.4355l0 -13.359375l9.15625 0l0 2.265625l-6.453125 0l0 3.15625l5.5625 0l0 2.265625l-5.5625 0l0 5.671875l-2.703125 0zm17.724121 0l0 -1.453125q-0.53125 0.78125 -1.390625 1.234375q-0.859375 0.4375 -1.8125 0.4375q-0.96875 0 -1.75 -0.421875q-0.765625 -0.4375 -1.125 -1.203125q-0.34375 -0.78125 -0.34375 -2.140625l0 -6.125l2.5625 0l0 4.4375q0 2.046875 0.140625 2.515625q0.140625 0.453125 0.515625 0.71875q0.375 0.265625 0.953125 0.265625q0.65625 0 1.171875 -0.359375q0.515625 -0.359375 0.703125 -0.890625q0.203125 -0.53125 0.203125 -2.609375l0 -4.078125l2.546875 0l0 9.671875l-2.375 0zm13.833496 0l-2.5625 0l0 -4.9375q0 -1.5625 -0.171875 -2.015625q-0.15625 -0.46875 -0.53125 -0.71875q-0.359375 -0.265625 -0.875 -0.265625q-0.671875 0 -1.203125 0.375q-0.53125 0.359375 -0.734375 0.96875q-0.1875 0.59375 -0.1875 2.21875l0 4.375l-2.546875 0l0 -9.671875l2.375 0l0 1.421875q1.265625 -1.640625 3.1875 -1.640625q0.84375 0 1.546875 0.3125q0.703125 0.296875 1.0625 0.78125q0.359375 0.46875 0.5 1.078125q0.140625 0.59375 0.140625 1.703125l0 6.015625zm11.03656 -6.8125l-2.53125 0.453125q-0.125 -0.75 -0.578125 -1.125q-0.453125 -0.390625 -1.171875 -0.390625q-0.953125 0 -1.53125 0.65625q-0.5625 0.65625 -0.5625 2.203125q0 1.734375 0.578125 2.4375q0.578125 0.703125 1.546875 0.703125q0.734375 0 1.203125 -0.40625q0.46875 -0.421875 0.65625 -1.421875l2.515625 0.421875q-0.390625 1.734375 -1.515625 2.625q-1.109375 0.875 -2.96875 0.875q-2.125 0 -3.390625 -1.328125q-1.25 -1.34375 -1.25 -3.71875q0 -2.390625 1.265625 -3.71875q1.265625 -1.34375 3.421875 -1.34375q1.765625 0 2.796875 0.765625q1.046875 0.75 1.515625 2.3125zm6.3757324 -2.859375l0 2.03125l-1.75 0l0 3.90625q0 1.1875 0.046875 1.390625q0.046875 0.1875 0.21875 0.3125q0.1875 0.125 0.4375 0.125q0.359375 0 1.03125 -0.25l0.21875 2.0q-0.890625 0.375 -2.015625 0.375q-0.703125 0 -1.265625 -0.234375q-0.546875 -0.234375 -0.8125 -0.59375q-0.25 -0.375 -0.34375 -1.0q-0.09375 -0.453125 -0.09375 -1.8125l0 -4.21875l-1.171875 0l0 -2.03125l1.171875 0l0 -1.921875l2.578125 -1.5l0 3.421875l1.75 0zm1.7752075 -1.3125l0 -2.375l2.5625 0l0 2.375l-2.5625 0zm0 10.984375l0 -9.671875l2.5625 0l0 9.671875l-2.5625 0zm4.5895386 -4.96875q0 -1.28125 0.625 -2.46875q0.625 -1.203125 1.78125 -1.828125q1.15625 -0.625 2.578125 -0.625q2.1875 0 3.59375 1.421875q1.40625 1.421875 1.40625 3.609375q0 2.1875 -1.421875 3.640625q-1.421875 1.4375 -3.5625 1.4375q-1.328125 0 -2.546875 -0.59375q-1.203125 -0.609375 -1.828125 -1.765625q-0.625 -1.171875 -0.625 -2.828125zm2.625 0.125q0 1.453125 0.671875 2.21875q0.6875 0.75 1.6875 0.75q1.0 0 1.671875 -0.75q0.6875 -0.765625 0.6875 -2.234375q0 -1.421875 -0.6875 -2.1875q-0.671875 -0.765625 -1.671875 -0.765625q-1.0 0 -1.6875 0.765625q-0.671875 0.765625 -0.671875 2.203125zm18.161621 4.84375l-2.5625 0l0 -4.9375q0 -1.5625 -0.171875 -2.015625q-0.15625 -0.46875 -0.53125 -0.71875q-0.359375 -0.265625 -0.875 -0.265625q-0.671875 0 -1.203125 0.375q-0.53125 0.359375 -0.734375 0.96875q-0.1875 0.59375 -0.1875 2.21875l0 4.375l-2.546875 0l0 -9.671875l2.375 0l0 1.421875q1.265625 -1.640625 3.1875 -1.640625q0.84375 0 1.546875 0.3125q0.703125 0.296875 1.0625 0.78125q0.359375 0.46875 0.5 1.078125q0.140625 0.59375 0.140625 1.703125l0 6.015625z" fill-rule="nonzero"/><path fill="#000000" fill-opacity="0.0" d="m699.3097 251.72966l146.42523 0l0 42.01573l-146.42523 0z" fill-rule="evenodd"/><path fill="#ffffff" d="m742.77246 272.0559q0 -2.046875 0.609375 -3.421875q0.453125 -1.03125 1.234375 -1.828125q0.796875 -0.8125 1.734375 -1.203125q1.25 -0.53125 2.875 -0.53125q2.953125 0 4.71875 1.828125q1.78125 1.828125 1.78125 5.09375q0 3.234375 -1.765625 5.0625q-1.75 1.828125 -4.6875 1.828125q-2.984375 0 -4.75 -1.8125q-1.75 -1.828125 -1.75 -5.015625zm2.78125 -0.09375q0 2.265625 1.046875 3.4375q1.046875 1.171875 2.65625 1.171875q1.609375 0 2.640625 -1.15625q1.046875 -1.171875 1.046875 -3.484375q0 -2.296875 -1.015625 -3.421875q-1.0 -1.140625 -2.671875 -1.140625q-1.671875 0 -2.6875 1.15625q-1.015625 1.140625 -1.015625 3.4375zm18.620789 6.6875l0 -1.453125q-0.53125 0.78125 -1.390625 1.234375q-0.859375 0.4375 -1.8125 0.4375q-0.96875 0 -1.75 -0.421875q-0.765625 -0.4375 -1.125 -1.203125q-0.34375 -0.78125 -0.34375 -2.140625l0 -6.125l2.5625 0l0 4.4375q0 2.046875 0.140625 2.515625q0.140625 0.453125 0.515625 0.71875q0.375 0.265625 0.953125 0.265625q0.65625 0 1.171875 -0.359375q0.515625 -0.359375 0.703125 -0.890625q0.203125 -0.53125 0.203125 -2.609375l0 -4.078125l2.546875 0l0 9.671875l-2.375 0zm9.474121 -9.671875l0 2.03125l-1.75 0l0 3.90625q0 1.1875 0.046875 1.390625q0.046875 0.1875 0.21875 0.3125q0.1875 0.125 0.4375 0.125q0.359375 0 1.03125 -0.25l0.21875 2.0q-0.890625 0.375 -2.015625 0.375q-0.703125 0 -1.265625 -0.234375q-0.546875 -0.234375 -0.8125 -0.59375q-0.25 -0.375 -0.34375 -1.0q-0.09375 -0.453125 -0.09375 -1.8125l0 -4.21875l-1.171875 0l0 -2.03125l1.171875 0l0 -1.921875l2.578125 -1.5l0 3.421875l1.75 0zm1.6970215 0l2.390625 0l0 1.421875q0.46875 -0.734375 1.25 -1.1875q0.796875 -0.453125 1.765625 -0.453125q1.6875 0 2.859375 1.328125q1.171875 1.3125 1.171875 3.671875q0 2.421875 -1.1875 3.765625q-1.1875 1.34375 -2.859375 1.34375q-0.8125 0 -1.46875 -0.3125q-0.640625 -0.328125 -1.359375 -1.09375l0 4.875l-2.5625 0l0 -13.359375zm2.53125 4.671875q0 1.625 0.640625 2.40625q0.65625 0.78125 1.578125 0.78125q0.90625 0 1.484375 -0.71875q0.59375 -0.71875 0.59375 -2.34375q0 -1.515625 -0.609375 -2.25q-0.609375 -0.75 -1.515625 -0.75q-0.9375 0 -1.5625 0.734375q-0.609375 0.71875 -0.609375 2.140625zm15.302246 5.0l0 -1.453125q-0.53125 0.78125 -1.390625 1.234375q-0.859375 0.4375 -1.8125 0.4375q-0.96875 0 -1.75 -0.421875q-0.765625 -0.4375 -1.125 -1.203125q-0.34375 -0.78125 -0.34375 -2.140625l0 -6.125l2.5625 0l0 4.4375q0 2.046875 0.140625 2.515625q0.140625 0.453125 0.515625 0.71875q0.375 0.265625 0.953125 0.265625q0.65625 0 1.171875 -0.359375q0.515625 -0.359375 0.703125 -0.890625q0.203125 -0.53125 0.203125 -2.609375l0 -4.078125l2.546875 0l0 9.671875l-2.375 0zm9.474121 -9.671875l0 2.03125l-1.75 0l0 3.90625q0 1.1875 0.046875 1.390625q0.046875 0.1875 0.21875 0.3125q0.1875 0.125 0.4375 0.125q0.359375 0 1.03125 -0.25l0.21875 2.0q-0.890625 0.375 -2.015625 0.375q-0.703125 0 -1.265625 -0.234375q-0.546875 -0.234375 -0.8125 -0.59375q-0.25 -0.375 -0.34375 -1.0q-0.09375 -0.453125 -0.09375 -1.8125l0 -4.21875l-1.171875 0l0 -2.03125l1.171875 0l0 -1.921875l2.578125 -1.5l0 3.421875l1.75 0z" fill-rule="nonzero"/></g></svg>